<svg width="108" height="108" viewBox="0 0 108 108" fill="none" xmlns="http://www.w3.org/2000/svg">
<g filter="url(#filter0_d_47_3282)">
<rect x="36" y="24" width="36" height="36" rx="18" fill="#236AD9"/>
</g>
<path d="M45 39.5999C45.1292 39.316 45.3529 39.2026 45.6596 39.2114C45.9866 39.2211 46.3144 39.2114 46.6418 39.214C47.0404 39.2176 47.246 39.425 47.246 39.8205C47.2465 42.4111 47.2465 45.0016 47.246 47.5922C47.246 47.9877 47.0404 48.1951 46.6418 48.1987C46.3144 48.2013 45.9866 48.1921 45.6596 48.2013C45.3529 48.2101 45.1292 48.0972 45 47.8133C45 45.0759 45 42.3377 45 39.5999Z" fill="white"/>
<path d="M55.899 45.9761C56.2316 46.0635 56.4865 46.2428 56.6496 46.539C57.0112 47.1964 56.6359 48.0151 55.9012 48.1694C55.8045 48.1896 55.7039 48.198 55.6054 48.1984C53.7637 48.2002 51.9215 48.201 50.0797 48.1988C49.4465 48.198 48.9051 47.9686 48.4656 47.512C48.4125 47.4566 48.3747 47.3617 48.3742 47.2848C48.3694 44.8867 48.3711 42.489 48.3672 40.0909C48.3672 39.9753 48.4085 39.9125 48.4977 39.8501C50.2643 38.6126 52.0331 37.3791 53.7909 36.1297C54.3424 35.7377 54.8368 35.8054 55.1871 36.0537C55.779 36.4733 55.8476 37.3074 55.3013 37.7829C54.7902 38.2276 54.2471 38.6355 53.718 39.06C53.6688 39.0995 53.6209 39.1399 53.5325 39.2133C53.6446 39.2133 53.7109 39.2133 53.7773 39.2133C56.4377 39.2133 59.0986 39.2129 61.7591 39.2138C62.3348 39.2138 62.7562 39.5056 62.9122 40.0048C63.1108 40.6402 62.7188 41.3043 62.0645 41.4321C61.9507 41.4545 61.832 41.4589 61.7156 41.4589C60.2188 41.4607 58.7216 41.4603 57.2248 41.4603C57.1615 41.4603 57.0987 41.4603 57.0354 41.4603C57.3153 41.5578 57.5531 41.7072 57.717 41.9533C57.8783 42.195 57.9464 42.4631 57.8976 42.7544C57.8414 43.0898 57.6691 43.349 57.3834 43.534C57.1044 43.7151 56.7889 43.7147 56.4413 43.705C57.1343 44.01 57.4379 44.4354 57.3312 44.9834C57.2916 45.1864 57.1958 45.4017 57.0626 45.5573C56.9339 45.708 56.7361 45.8253 56.5458 45.8917C56.3499 45.9603 56.1257 45.9502 55.899 45.9761Z" fill="white"/>
<defs>
<filter id="filter0_d_47_3282" x="0" y="0" width="108" height="108" filterUnits="userSpaceOnUse" color-interpolation-filters="sRGB">
<feFlood flood-opacity="0" result="BackgroundImageFix"/>
<feColorMatrix in="SourceAlpha" type="matrix" values="0 0 0 0 0 0 0 0 0 0 0 0 0 0 0 0 0 0 127 0" result="hardAlpha"/>
<feOffset dy="12"/>
<feGaussianBlur stdDeviation="18"/>
<feComposite in2="hardAlpha" operator="out"/>
<feColorMatrix type="matrix" values="0 0 0 0 0 0 0 0 0 0 0 0 0 0 0 0 0 0 0.12 0"/>
<feBlend mode="normal" in2="BackgroundImageFix" result="effect1_dropShadow_47_3282"/>
<feBlend mode="normal" in="SourceGraphic" in2="effect1_dropShadow_47_3282" result="shape"/>
</filter>
</defs>
</svg>
