<svg width="720" height="442" viewBox="0 0 720 442" fill="none" xmlns="http://www.w3.org/2000/svg">
<g clip-path="url(#clip0_125_1148)">
<path opacity="0.12" d="M62.7681 441.474H660.584C696.843 411.405 720 365.144 720 313.311C720 232.67 663.835 165.592 589.793 151.714C590.098 148.034 590.199 144.249 590.199 140.464C590.301 62.8725 529.565 0 454.609 0C399.56 0 352.129 33.9596 330.902 82.7436C322.777 80.8511 314.245 79.7997 305.612 79.7997C292.916 79.7997 280.627 82.0076 269.251 86.0029C248.126 64.9753 219.484 52.0433 187.897 52.0433C122.997 52.0433 70.4871 106.505 70.4871 173.583C70.4871 193.244 75.0575 211.853 83.0812 228.36C44.08 250.228 17.6729 292.914 17.6729 342.014C17.6729 381.966 35.2437 417.713 62.7681 441.474Z" fill="white"/>
<path d="M373.559 213.22H145.95C139.754 213.22 134.777 208.068 134.777 201.655V40.6885C134.777 34.2751 139.754 29.1233 145.95 29.1233H373.559C379.754 29.1233 384.731 34.2751 384.731 40.6885V201.76C384.731 208.068 379.754 213.22 373.559 213.22Z" fill="white" stroke="#6666FE" stroke-width="0.75" stroke-miterlimit="10" stroke-linecap="round" stroke-linejoin="round"/>
<path d="M375.996 29.1233H143.512C138.738 29.1233 134.777 33.6442 134.777 39.3217V44.3683H384.731V39.3217C384.731 33.6442 380.77 29.1233 375.996 29.1233Z" fill="#6666FE" stroke="#6666FE" stroke-width="0.75" stroke-miterlimit="10"/>
<path d="M147.27 36.6931C147.27 38.4805 145.848 39.9524 144.223 39.9524C142.496 39.9524 141.176 38.4805 141.176 36.6931C141.176 34.9058 142.598 33.4338 144.223 33.4338C145.949 33.539 147.27 34.9058 147.27 36.6931Z" stroke="#6666FE" stroke-width="0.75" stroke-miterlimit="10"/>
<path d="M155.902 39.9524C157.585 39.9524 158.949 38.4932 158.949 36.6931C158.949 34.8931 157.585 33.4338 155.902 33.4338C154.22 33.4338 152.855 34.8931 152.855 36.6931C152.855 38.4932 154.22 39.9524 155.902 39.9524Z" stroke="#6666FE" stroke-width="0.75" stroke-miterlimit="10"/>
<path d="M170.63 36.6931C170.63 38.4805 169.208 39.9524 167.583 39.9524C165.856 39.9524 164.536 38.4805 164.536 36.6931C164.536 34.9058 165.958 33.4338 167.583 33.4338C169.208 33.539 170.63 34.9058 170.63 36.6931Z" stroke="#6666FE" stroke-width="0.75" stroke-miterlimit="10"/>
<path d="M273.72 59.639H154.989C154.063 59.639 153.255 58.8279 153.255 57.826C153.255 56.824 154.063 56.0129 154.989 56.0129H273.72C274.646 56.0129 275.454 56.824 275.454 57.826C275.454 58.8279 274.646 59.639 273.72 59.639Z" fill="#6666FE" stroke="#6666FE"/>
<path d="M242.234 66.3677H158.239C157.987 66.3677 157.713 66.1528 157.623 65.6739C157.642 65.3212 157.933 65.0547 158.239 65.0547H242.234C242.551 65.0547 242.851 65.3401 242.851 65.7112C242.851 66.0823 242.551 66.3677 242.234 66.3677Z" fill="#6666FE" stroke="#6666FE"/>
<path d="M256.555 71.835H158.239C157.987 71.835 157.713 71.6201 157.623 71.1412C157.642 70.7884 157.933 70.522 158.239 70.522H256.555C256.872 70.522 257.172 70.8074 257.172 71.1785C257.172 71.5496 256.872 71.835 256.555 71.835Z" fill="#6666FE" stroke="#6666FE"/>
<path d="M213.288 77.3023H158.239C157.987 77.3023 157.713 77.0873 157.623 76.6085C157.642 76.2557 157.933 75.9893 158.239 75.9893H213.288C213.605 75.9893 213.905 76.2747 213.905 76.6458C213.905 77.0169 213.605 77.3023 213.288 77.3023Z" fill="#6666FE" stroke="#6666FE"/>
<path d="M312.408 196.844V76.0942H335.175V196.844H312.408Z" fill="#6666FE" stroke="#6666FE"/>
<path d="M247.711 196.844V135.602H270.477V196.844H247.711Z" fill="#6666FE" stroke="#6666FE"/>
<path d="M303.275 113.339H279.509V197.344H303.275V113.339Z" fill="white"/>
<path d="M183.013 196.739V97.9629H205.779V196.739H183.013Z" fill="#6666FE" stroke="#6666FE"/>
<path d="M173.981 171.69H150.215V197.344H173.981V171.69Z" fill="white"/>
<path d="M238.578 150.242H214.812V197.239H238.578V150.242Z" fill="white"/>
<path d="M138.637 197.344H353.855" stroke="#6666FE" stroke-width="0.75" stroke-miterlimit="10" stroke-linecap="round"/>
<path d="M78.0027 375.027C78.4507 375.249 78.4508 375.249 78.4509 375.249L78.4515 375.247L78.4542 375.242L78.4651 375.22L78.5088 375.133C78.5206 375.109 78.5341 375.082 78.5493 375.052C78.5844 374.983 78.6288 374.895 78.682 374.79C78.8346 374.49 79.0606 374.05 79.3531 373.492C79.9381 372.376 80.789 370.788 81.8518 368.902C83.9782 365.129 86.949 360.171 90.3313 355.42C93.7184 350.662 97.4971 346.141 101.234 343.219C104.994 340.28 108.551 339.075 111.603 340.57C113.094 341.306 113.833 342.466 114.014 343.977C114.2 345.526 113.797 347.464 112.915 349.685C111.152 354.12 107.564 359.469 103.533 364.653C99.508 369.828 95.0691 374.804 91.634 378.488C89.917 380.329 88.452 381.846 87.4165 382.903C86.8988 383.431 86.4885 383.845 86.2079 384.125C86.0883 384.245 85.9922 384.341 85.9214 384.411L37.2726 384.62L37.2664 384.62L24.9316 384.828C24.8805 384.793 24.8148 384.749 24.7351 384.694C24.5221 384.548 24.2097 384.333 23.8137 384.056C23.0216 383.501 21.8953 382.699 20.56 381.711C17.8882 379.733 14.3845 377.013 11.0482 374.036C7.70609 371.055 4.55718 367.839 2.57414 364.871C1.58231 363.387 0.900842 361.992 0.619699 360.74C0.340818 359.499 0.460462 358.427 1.03006 357.529C1.37263 357.004 1.83268 356.711 2.41223 356.598C3.01159 356.481 3.76228 356.554 4.65806 356.824C6.4527 357.365 8.6708 358.646 11.0846 360.373C15.8999 363.818 21.3352 368.919 25.4471 372.965L26.2476 372.39C25.9527 371.784 25.65 371.162 25.3404 370.525C21.2744 362.17 16.0367 351.406 12.234 341.791C10.1873 336.615 8.56526 331.794 7.76305 327.873C7.36186 325.912 7.16995 324.195 7.22512 322.783C7.28054 321.363 7.58326 320.307 8.11585 319.608C8.55691 319.037 9.00982 318.781 9.4627 318.722C9.92825 318.662 10.4812 318.798 11.1337 319.185C12.4529 319.968 13.9884 321.66 15.6606 324.069C18.9887 328.863 22.6961 336.249 26.1668 343.993C29.6339 351.728 32.8518 359.792 35.2035 365.923C36.3792 368.988 37.338 371.569 38.0029 373.384C38.3353 374.291 38.5941 375.007 38.7699 375.496C38.8577 375.74 38.9248 375.928 38.9699 376.054L39.0208 376.197L39.0336 376.233L39.0368 376.242L39.0376 376.245C39.0378 376.245 39.0379 376.245 39.5092 376.079M78.0027 375.027C77.5494 374.816 77.5495 374.816 77.5497 374.816L77.5504 374.814L77.5535 374.807L77.566 374.78L77.6155 374.673C77.6592 374.578 77.724 374.437 77.8081 374.253C77.9762 373.884 78.2213 373.342 78.5289 372.65C79.1441 371.265 80.0089 369.281 81.007 366.882C83.0036 362.084 85.5308 355.636 87.6579 349.023C89.7874 342.403 91.5055 335.651 91.901 330.236C92.0988 327.527 91.9623 325.191 91.4053 323.385C90.8515 321.591 89.8979 320.362 88.4739 319.765C87.0874 319.184 85.6497 319.487 84.1234 320.607C82.5834 321.737 81.0145 323.661 79.4561 326.176C76.3438 331.199 73.3684 338.421 70.7812 345.845C68.1967 353.261 66.0103 360.848 64.4695 366.583C63.6992 369.45 63.0907 371.853 62.6748 373.539C62.4669 374.382 62.3071 375.045 62.1994 375.498C62.1455 375.724 62.1047 375.898 62.0773 376.014L62.0465 376.147L62.0388 376.18L62.0381 376.183L62.0375 376.185L62.0368 376.188L62.0364 376.19C62.0363 376.19 62.0363 376.191 61.9724 376.176C61.9121 376.162 61.7949 376.135 61.5671 376.083L62.0362 376.191L61.0607 375.971L61.549 376.079C61.0607 375.971 61.0607 375.971 61.0608 375.971L61.0613 375.968L61.062 375.965L61.0625 375.963L61.0633 375.959L61.0713 375.923L61.1029 375.778C61.1307 375.649 61.1719 375.459 61.2252 375.21C61.3318 374.713 61.4868 373.983 61.6804 373.053C62.0676 371.192 62.609 368.531 63.2258 365.329C64.4596 358.924 65.994 350.357 67.1985 341.708C68.4037 333.054 69.2754 324.338 69.1902 317.625C69.1475 314.264 68.8651 311.439 68.2804 309.383C67.6859 307.293 66.8332 306.18 65.7911 305.91C64.8111 305.656 63.7721 306.234 62.6618 307.949C61.5719 309.631 60.551 312.217 59.6073 315.452C57.7234 321.91 56.1912 330.796 54.9858 339.793C53.7812 348.785 52.906 357.864 52.3319 364.697C52.0448 368.112 51.8332 370.966 51.6932 372.965C51.6233 373.965 51.5713 374.751 51.5368 375.287C51.5195 375.555 51.5066 375.761 51.4981 375.899L51.4885 376.056L51.4861 376.095L51.4855 376.105L51.4853 376.108C51.4853 376.108 51.4853 376.108 50.9862 376.079M78.0027 375.027L78.4507 375.249L77.5494 374.816L78.0027 375.027ZM50.9862 376.079C50.4869 376.105 50.4869 376.105 50.4868 376.105L50.4867 376.102L50.4862 376.092L50.484 376.053L50.4752 375.895C50.4673 375.756 50.4554 375.549 50.4393 375.28C50.407 374.741 50.358 373.951 50.2907 372.948C50.1562 370.941 49.9489 368.079 49.658 364.664C49.0761 357.833 48.1599 348.789 46.8227 339.933C45.4842 331.068 43.7286 322.424 41.4766 316.374C40.3477 313.341 39.1137 311.015 37.7854 309.633C37.1255 308.947 36.4638 308.516 35.8031 308.329C35.1524 308.145 34.4642 308.187 33.7173 308.512C32.2236 309.169 31.1295 310.631 30.3996 312.825C29.6704 315.018 29.3303 317.869 29.2972 321.172C29.231 327.774 30.3912 336.053 31.9763 344.179C33.5601 352.298 35.5627 360.236 37.1701 366.147C37.9736 369.101 38.678 371.548 39.1815 373.256C39.4332 374.11 39.6346 374.779 39.773 375.234C39.8422 375.461 39.8957 375.636 39.9318 375.753L39.9728 375.885L39.9831 375.919L39.9857 375.927L39.9863 375.929C39.9865 375.929 39.9865 375.93 39.5092 376.079M50.9862 376.079L51.4853 376.108L50.4869 376.105L50.9862 376.079ZM39.5092 376.079L39.9865 375.93L39.0379 376.245L39.5092 376.079Z" fill="black" stroke="black"/>
<path d="M63.3772 324.456L54.7441 384.595" stroke="white" stroke-width="0.75" stroke-miterlimit="10" stroke-linecap="round" stroke-linejoin="round"/>
<path d="M64.9004 384.595L79.9321 342.434" stroke="white" stroke-width="0.75" stroke-miterlimit="10" stroke-linecap="round" stroke-linejoin="round"/>
<path d="M77.9014 384.91C78.7139 384.174 96.9957 360.203 96.9957 360.203" stroke="white" stroke-width="0.75" stroke-miterlimit="10" stroke-linecap="round" stroke-linejoin="round"/>
<path d="M35.3447 320.46L45.6029 385.12" stroke="white" stroke-width="0.75" stroke-miterlimit="10" stroke-linecap="round" stroke-linejoin="round"/>
<path d="M21.3291 347.481L37.2749 385.12" stroke="white" stroke-width="0.75" stroke-miterlimit="10" stroke-linecap="round" stroke-linejoin="round"/>
<path d="M11.8838 367.352L29.2515 385.331" stroke="white" stroke-width="0.75" stroke-miterlimit="10" stroke-linecap="round" stroke-linejoin="round"/>
<path d="M36.487 439.923L29.4246 392.454H82.501L75.4386 439.923H61.0411H50.7829H36.487Z" fill="#236AD9" stroke="#236AD9"/>
<path d="M87.4485 393.452H24.4777C22.5277 393.452 20.8135 391.792 20.8135 389.641V388.905C20.8135 386.844 22.4417 385.095 24.4777 385.095H87.4485C89.3984 385.095 91.1127 386.755 91.1127 388.905V389.63C91.0158 391.716 89.3692 393.452 87.4485 393.452Z" fill="#236AD9" stroke="#236AD9"/>
<path d="M25.7979 393.952H85.1123" stroke="white" stroke-width="0.75" stroke-miterlimit="10" stroke-linecap="round" stroke-linejoin="round"/>
<path d="M300.432 142.462C300.432 142.462 276.361 114.075 273.212 108.713C270.064 103.351 276.361 91.5752 284.486 93.5729C292.611 95.5705 306.627 111.446 315.464 124.378L300.432 142.462Z" fill="white" stroke="#141414" stroke-width="0.75" stroke-miterlimit="10"/>
<path d="M269.15 104.823C269.15 104.823 266.002 103.245 265.189 100.512C264.376 97.7783 266.408 95.991 270.877 98.304C275.346 100.617 269.15 104.823 269.15 104.823Z" fill="white" stroke="#141414" stroke-width="0.75" stroke-miterlimit="10" stroke-linecap="round" stroke-linejoin="round"/>
<path d="M266.813 98.304C266.813 98.304 264.782 96.7269 265.087 94.4139C265.29 92.1009 267.423 90.5238 271.79 94.2036C276.157 97.8834 272.095 101.984 272.095 101.984L266.813 98.304Z" fill="white" stroke="#141414" stroke-width="0.75" stroke-miterlimit="10" stroke-linecap="round" stroke-linejoin="round"/>
<path d="M280.626 83.2693H278.595H266.204L269.657 116.493H278.595H280.626H289.666L293.017 83.2693H280.626Z" fill="white" stroke="#141414" stroke-width="0.75" stroke-miterlimit="10" stroke-linecap="round" stroke-linejoin="round"/>
<path d="M268.642 107.241H290.58L292.306 90.2085H266.915L268.642 107.241Z" fill="#F39FE3" stroke="#141414" stroke-width="0.75" stroke-miterlimit="10" stroke-linecap="round" stroke-linejoin="round"/>
<path d="M290.478 80.0101H269.048C268.235 80.0101 267.524 79.2741 267.524 78.433V75.4892C267.524 74.6481 268.235 73.9121 269.048 73.9121H290.478C291.291 73.9121 292.002 74.6481 292.002 75.4892V78.433C291.9 79.2741 291.291 80.0101 290.478 80.0101Z" fill="#141414"/>
<path d="M294.236 83.795H265.29C264.173 83.795 263.36 82.8488 263.36 81.7974V79.6946C263.36 78.5381 264.274 77.697 265.29 77.697H294.236C295.354 77.697 296.166 78.6433 296.166 79.6946V81.7974C296.166 82.8488 295.252 83.795 294.236 83.795Z" fill="#141414"/>
<path d="M295.252 117.544C286.924 111.026 291.189 107.766 287.228 101.038C284.689 96.8321 286.822 93.6779 289.057 94.519C291.291 95.4653 300.33 105.559 300.33 105.559L295.252 117.544Z" fill="white"/>
<path d="M300.432 105.559C300.432 105.559 291.393 95.4654 289.158 94.5192C286.924 93.5729 284.791 96.7271 287.33 101.038C291.393 107.872 287.127 111.026 295.354 117.544" stroke="#141414" stroke-width="0.75" stroke-miterlimit="10" stroke-linecap="round" stroke-linejoin="round"/>
<path d="M378.536 105.243L329.886 134.787L313.94 116.072L287.533 138.467C287.533 138.467 301.448 187.776 334.761 190.615C368.075 193.454 388.591 152.03 388.591 152.03L378.536 105.243Z" fill="#F39FE3"/>
<path d="M319.425 122.381L290.783 145.826" stroke="#141414" stroke-width="0.75" stroke-miterlimit="10" stroke-linecap="round" stroke-linejoin="round"/>
<path d="M340.347 128.058L329.987 134.156" stroke="#141414" stroke-width="0.75" stroke-miterlimit="10" stroke-linecap="round" stroke-linejoin="round"/>
<path d="M334.761 140.464L314.042 116.072L287.635 138.467C287.635 138.467 301.549 187.776 334.863 190.615C368.176 193.454 388.693 152.029 388.693 152.029" stroke="#141414" stroke-width="0.75" stroke-miterlimit="10" stroke-linecap="round" stroke-linejoin="round"/>
<path d="M382.396 139.834C382.396 139.834 380.263 121.014 381.177 115.547C382.091 110.08 384.935 103.666 389.607 103.456C394.177 103.141 405.857 103.561 407.99 106.61C410.123 109.659 414.389 113.97 412.865 125.009C411.342 136.049 404.74 176.527 404.74 176.527L399.967 188.407H391.537L382.396 139.834Z" fill="white"/>
<path d="M394.787 100.933V172.532" stroke="#141414" stroke-width="0.75" stroke-miterlimit="10" stroke-linecap="round" stroke-linejoin="round"/>
<path d="M394.787 106.4L387.169 118.491L380.974 104.402C380.974 104.402 386.966 97.9887 389.302 97.5682C391.638 97.1476 401.591 97.0425 401.591 97.0425C401.591 97.0425 406.974 101.353 409.107 103.666C411.24 105.979 402.201 119.332 402.201 119.332L394.787 106.4Z" fill="white" stroke="#141414" stroke-width="0.75" stroke-miterlimit="10" stroke-linecap="round" stroke-linejoin="round"/>
<path d="M352.23 393.111L358.832 238.979L393.466 236.14L381.888 394.162L352.23 393.111Z" fill="white" stroke="#141414" stroke-width="0.75" stroke-miterlimit="10" stroke-linecap="round" stroke-linejoin="round"/>
<path d="M382.193 391.323L381.38 440.949L374.271 441.159L374.067 426.334L352.332 441.685L330.902 441.895C328.16 442.105 326.738 438.636 328.769 436.743L348.27 418.87L351.825 391.849L382.193 391.323Z" fill="#141414"/>
<path d="M351.215 397.842L382.091 397.421" stroke="white" stroke-width="0.75" stroke-miterlimit="10" stroke-linecap="round" stroke-linejoin="round"/>
<path d="M344.105 422.655L349.996 424.547" stroke="white" stroke-width="0.75" stroke-miterlimit="10" stroke-linecap="round" stroke-linejoin="round"/>
<path d="M340.246 426.334L346.543 428.753" stroke="white" stroke-width="0.75" stroke-miterlimit="10" stroke-linecap="round" stroke-linejoin="round"/>
<path d="M336.082 429.909L341.567 432.327" stroke="white" stroke-width="0.75" stroke-miterlimit="10" stroke-linecap="round" stroke-linejoin="round"/>
<path d="M393.466 392.585L400.068 238.558L434.6 235.719L423.021 393.742L393.466 392.585Z" fill="white" stroke="#141414" stroke-width="0.75" stroke-miterlimit="10" stroke-linecap="round" stroke-linejoin="round"/>
<path d="M423.428 390.903L422.108 441.474L415.404 441.685L415.201 426.44L392.857 441.264L371.934 441.474C369.192 441.685 367.77 438.215 369.801 436.323L389.302 418.449L392.857 391.429L423.428 390.903Z" fill="#141414"/>
<path d="M392.45 397.422L423.326 396.896" stroke="white" stroke-width="0.75" stroke-miterlimit="10" stroke-linecap="round" stroke-linejoin="round"/>
<path d="M385.239 422.234L391.232 424.022" stroke="white" stroke-width="0.75" stroke-miterlimit="10" stroke-linecap="round" stroke-linejoin="round"/>
<path d="M381.38 425.914L387.677 428.332" stroke="white" stroke-width="0.75" stroke-miterlimit="10" stroke-linecap="round" stroke-linejoin="round"/>
<path d="M377.216 429.489L382.7 431.802" stroke="white" stroke-width="0.75" stroke-miterlimit="10" stroke-linecap="round" stroke-linejoin="round"/>
<path d="M354.871 216.9L353.449 304.374L433.483 306.582L442.421 216.9H354.871Z" fill="#F39FE3"/>
<path d="M407.381 101.984L441.609 123.222L442.523 174.214L448.82 258.009C448.82 258.009 441.406 262.74 427.897 261.058C423.53 260.532 418.96 260.006 413.272 257.588C390.013 247.39 393.974 233.932 393.974 233.932L394.076 157.812C394.076 157.812 411.647 116.703 407.381 101.984Z" fill="#F39FE3"/>
<path d="M393.467 181.994L394.076 239.084C394.076 239.084 396.311 253.803 419.366 259.375C442.422 265.053 448.82 258.009 448.82 258.009C448.82 258.009 440.898 160.546 441.711 155.499" stroke="#141414" stroke-width="0.75" stroke-miterlimit="10" stroke-linecap="round" stroke-linejoin="round"/>
<path d="M440.289 224.049C434.093 221 427.999 217.741 422.007 214.271" stroke="#141414" stroke-width="0.75" stroke-miterlimit="10" stroke-linecap="round" stroke-linejoin="round"/>
<path d="M417.538 114.285C424.038 127.007 425.155 132.579 425.155 132.579H413.475L419.264 147.298L394.076 181.994" stroke="#141414" stroke-width="0.75" stroke-miterlimit="10" stroke-linecap="round" stroke-linejoin="round"/>
<path d="M383.31 101.984L351.926 123.222V173.478L345.223 258.114C345.223 258.114 351.317 262.95 363.708 261.268C367.669 260.742 372.645 260.111 377.825 257.693C399.154 247.495 395.498 234.037 395.498 234.037L395.396 157.917C395.396 157.812 379.349 116.703 383.31 101.984Z" fill="#F39FE3"/>
<path d="M391.739 183.781C391.739 184.938 390.825 185.884 389.81 185.884C388.692 185.884 387.88 184.938 387.88 183.781C387.88 182.625 388.794 181.678 389.81 181.678C390.825 181.573 391.739 182.519 391.739 183.781Z" stroke="#141414" stroke-width="0.75" stroke-miterlimit="10" stroke-linecap="round" stroke-linejoin="round"/>
<path d="M391.739 199.552C391.739 200.708 390.825 201.655 389.81 201.655C388.692 201.655 387.88 200.708 387.88 199.552C387.88 198.395 388.794 197.449 389.81 197.449C390.825 197.344 391.739 198.29 391.739 199.552Z" stroke="#141414" stroke-width="0.75" stroke-miterlimit="10" stroke-linecap="round" stroke-linejoin="round"/>
<path d="M391.739 215.323C391.739 216.479 390.825 217.425 389.81 217.425C388.692 217.425 387.88 216.479 387.88 215.323C387.88 214.166 388.794 213.22 389.81 213.22C390.825 213.115 391.739 214.166 391.739 215.323Z" stroke="#141414" stroke-width="0.75" stroke-miterlimit="10" stroke-linecap="round" stroke-linejoin="round"/>
<path d="M351.621 170.429C352.434 175.475 345.223 258.114 345.223 258.114C345.223 258.114 351.113 265.158 372.239 259.481C393.365 253.803 395.396 239.189 395.396 239.189L394.787 156.235" stroke="#141414" stroke-width="0.75" stroke-miterlimit="10" stroke-linecap="round" stroke-linejoin="round"/>
<path d="M352.738 224.049C358.426 221 364.012 217.741 369.497 214.271" stroke="#141414" stroke-width="0.75" stroke-miterlimit="10" stroke-linecap="round" stroke-linejoin="round"/>
<path d="M373.966 114.285C367.974 127.007 366.958 132.579 366.958 132.579H378.333L372.443 147.298L394.99 180.312" stroke="#141414" stroke-width="0.75" stroke-miterlimit="10" stroke-linecap="round" stroke-linejoin="round"/>
<path d="M407.381 101.984C411.139 114.916 397.935 148.455 394.787 156.235C391.841 148.455 379.856 114.916 383.31 101.984" stroke="#141414" stroke-width="0.75" stroke-miterlimit="10" stroke-linecap="round" stroke-linejoin="round"/>
<path d="M410.631 58.0361C407.685 54.3563 405.451 52.9895 401.591 50.8867L401.896 56.9847C393.974 56.459 382.497 56.459 378.13 60.6645C371.122 67.3934 369.497 88.9467 374.676 92.9419C378.333 95.6755 411.037 99.145 417.232 89.8929C424.545 79.0637 413.576 61.1902 410.631 58.0361Z" fill="#141414" stroke="#141414" stroke-width="0.75" stroke-miterlimit="10" stroke-linecap="round" stroke-linejoin="round"/>
<path d="M404.841 72.5453C403.521 72.5453 402.404 72.9659 401.388 73.7018C401.998 60.2442 395.904 58.6671 384.935 59.2979C374.067 59.6134 375.895 73.9121 375.794 81.9026C375.997 90.5239 382.192 93.3627 389.099 92.6267C389.099 96.5168 387.982 103.876 393.669 103.876C397.021 104.297 401.287 103.456 401.287 99.1452C401.287 95.0449 401.388 87.7903 401.287 83.69C410.224 89.1571 415.201 73.2813 404.841 72.5453Z" fill="white" stroke="#141414" stroke-width="0.75" stroke-miterlimit="10" stroke-linecap="round" stroke-linejoin="round"/>
<path d="M405.044 52.7794C402.302 50.5715 398.849 49.3098 394.888 49.7304C367.363 40.6885 365.637 79.3793 391.333 64.8702C392.145 68.6552 395.599 72.6504 398.849 74.0172L400.982 78.2228L401.388 74.2275C402.911 72.4402 406.466 71.9145 408.701 73.9121C413.068 65.0805 405.044 52.7794 405.044 52.7794Z" fill="#141414"/>
<path d="M401.998 79.3793C401.998 79.3793 401.795 75.2789 405.857 75.6995" stroke="#141414" stroke-width="0.75" stroke-miterlimit="10" stroke-linecap="round" stroke-linejoin="round"/>
<path d="M405.755 53.305C403.013 51.0971 398.849 49.3097 394.888 49.6251C367.363 40.5833 365.637 79.274 391.333 64.765C392.145 68.55 395.599 72.5452 398.849 73.912L400.982 78.1175L401.388 74.1223C402.911 72.3349 406.466 71.8093 408.701 73.8069" stroke="#141414" stroke-width="0.75" stroke-miterlimit="10" stroke-linecap="round" stroke-linejoin="round"/>
<path d="M411.341 50.8868C417.063 50.8868 421.701 46.2738 421.701 40.5833C421.701 34.8928 417.063 30.2798 411.341 30.2798C405.62 30.2798 400.981 34.8928 400.981 40.5833C400.981 46.2738 405.62 50.8868 411.341 50.8868Z" stroke="#141414" stroke-width="0.75" stroke-miterlimit="10" stroke-linecap="round" stroke-linejoin="round"/>
<path d="M383.31 78.9588L380.263 77.0663L383.005 72.23" stroke="#141414" stroke-width="0.75" stroke-miterlimit="10" stroke-linecap="round" stroke-linejoin="round"/>
<path d="M391.638 71.5991L388.692 70.3374" stroke="#141414" stroke-miterlimit="10" stroke-linecap="round" stroke-linejoin="round"/>
<path d="M378.841 70.4421L375.997 70.9678" stroke="#141414" stroke-miterlimit="10" stroke-linecap="round" stroke-linejoin="round"/>
<path d="M390.317 74.3325C390.317 75.1736 389.708 75.8045 388.896 75.8045C388.083 75.8045 387.474 75.1736 387.474 74.3325C387.474 73.4914 388.083 72.8606 388.896 72.8606C389.708 72.8606 390.317 73.4914 390.317 74.3325Z" fill="#141414"/>
<path d="M378.739 73.9121C378.739 74.5429 378.232 75.1737 377.521 75.1737C376.911 75.1737 376.302 74.648 376.302 73.9121C376.302 73.2812 376.81 72.6504 377.521 72.6504C378.13 72.6504 378.739 73.1761 378.739 73.9121Z" fill="#141414"/>
<path d="M380.06 83.4797C380.06 85.0568 381.278 86.3185 382.7 86.3185C384.224 86.3185 385.443 85.0568 385.443 83.5849L380.06 83.4797Z" stroke="#141414" stroke-width="0.75" stroke-miterlimit="10" stroke-linecap="round" stroke-linejoin="round"/>
<path d="M412.357 105.033L434.803 154.027L434.905 154.132L420.381 156.025C420.381 156.025 418.553 176.106 421.701 197.239C423.428 208.699 446.89 226.572 462.531 201.655C478.172 176.737 462.531 118.385 412.357 105.033Z" fill="#F39FE3"/>
<path d="M419.873 165.803L451.562 160.966" stroke="#141414" stroke-width="0.75" stroke-miterlimit="10" stroke-linecap="round" stroke-linejoin="round"/>
<path d="M457.554 179.996L448.921 152.45L420.381 156.13C420.381 156.13 418.553 176.211 421.702 197.344C423.428 208.804 446.89 226.678 462.531 201.76C468.219 192.823 469.742 179.471 467.102 165.382" stroke="#141414" stroke-width="0.75" stroke-miterlimit="10" stroke-linecap="round" stroke-linejoin="round"/>
<path d="M417.03 118.491C417.03 118.491 413.983 114.811 411.85 115.547C409.717 116.283 409.819 120.173 413.576 124.063C417.334 128.058 417.03 118.491 417.03 118.491Z" fill="white" stroke="#141414" stroke-width="0.75" stroke-miterlimit="10" stroke-linecap="round" stroke-linejoin="round"/>
<path d="M425.967 111.341L424.038 111.236L412.154 110.71L414.084 142.988L422.819 143.303L424.748 143.408L433.483 143.829L437.952 111.867L425.967 111.341Z" fill="white" stroke="#141414" stroke-width="0.75" stroke-miterlimit="10" stroke-linecap="round" stroke-linejoin="round"/>
<path d="M413.576 133.946L434.702 134.787L437.038 118.491L412.561 117.439L413.576 133.946Z" fill="#F39FE3" stroke="#141414" stroke-width="0.75" stroke-miterlimit="10" stroke-linecap="round" stroke-linejoin="round"/>
<path d="M435.616 108.503L414.998 107.661C414.186 107.661 413.576 106.925 413.576 106.084L413.678 103.246C413.678 102.405 414.389 101.774 415.201 101.774L435.819 102.615C436.632 102.615 437.241 103.351 437.241 104.192L437.139 107.031C437.038 107.872 436.428 108.503 435.616 108.503Z" fill="#141414"/>
<path d="M439.069 112.393L411.139 111.236C410.123 111.236 409.311 110.29 409.311 109.238L409.412 107.241C409.412 106.189 410.326 105.348 411.342 105.348L439.272 106.505C440.288 106.505 441.101 107.451 441.101 108.503L440.999 110.5C440.999 111.552 440.187 112.393 439.069 112.393Z" fill="#141414"/>
<path d="M439.171 130.056C439.171 130.056 439.679 119.963 437.749 117.755C435.82 115.547 427.694 113.444 425.968 115.126C424.241 116.808 425.358 119.857 428.507 120.488C431.655 121.014 431.859 121.434 431.859 121.434L432.671 127.532L439.171 130.056Z" fill="white" stroke="#141414" stroke-width="0.75" stroke-miterlimit="10" stroke-linecap="round" stroke-linejoin="round"/>
<path d="M415.811 129.11C416.116 128.058 416.725 126.902 420.077 127.112V127.007C417.131 125.325 417.741 123.012 418.959 121.855C420.889 120.173 427.897 121.96 431.452 122.801C435.007 123.642 439.577 128.899 439.577 128.899C439.577 128.899 442.218 131.002 442.726 146.878L442.523 153.397L428.304 155.079C428.304 155.079 427.796 151.189 426.78 149.191C425.764 147.299 425.358 144.039 425.358 142.567V142.462C420.077 140.57 416.217 137.626 416.725 135.313C417.03 133.946 417.639 133.21 419.467 133.315C416.217 131.738 415.303 130.476 415.811 129.11Z" fill="white"/>
<path d="M419.976 126.902C417.03 125.219 417.64 122.906 418.858 121.75C420.788 120.068 427.796 121.855 431.351 122.696C434.906 123.537 439.476 128.794 439.476 128.794C439.476 128.794 442.117 130.897 442.625 146.773L442.422 153.291L428.203 154.973C428.203 154.973 427.695 151.083 426.679 149.086C425.663 147.193 425.257 143.934 425.257 142.462" stroke="#141414" stroke-width="0.75" stroke-miterlimit="10" stroke-linecap="round" stroke-linejoin="round"/>
<path d="M434.195 131.633C434.195 131.633 431.148 128.899 424.038 127.532C417.03 126.166 416.217 127.638 415.71 129.004C415.303 130.476 416.116 131.738 419.163 133.21" stroke="#141414" stroke-width="0.75" stroke-miterlimit="10" stroke-linecap="round" stroke-linejoin="round"/>
<path d="M431.859 137.31C431.859 137.31 425.867 134.787 422.515 133.841C417.944 132.579 417.03 133.21 416.523 135.208C415.812 138.046 422.007 141.936 429.32 143.619" stroke="#141414" stroke-width="0.75" stroke-miterlimit="10" stroke-linecap="round" stroke-linejoin="round"/>
<path d="M558.551 398.165H567.997V334.872H558.551V398.165Z" fill="white" stroke="white" stroke-width="0.75" stroke-miterlimit="10"/>
<path d="M566.23 417.844H560.441C558.295 417.844 556.573 416.087 556.573 413.823V368.824C556.573 366.561 558.295 364.803 560.441 364.803H566.23C568.375 364.803 570.097 366.561 570.097 368.824V413.823C570.097 416.087 568.375 417.844 566.23 417.844Z" fill="black" stroke="white"/>
<path d="M527.946 420.342V427.201H523.462V420.342V414.323H526.212H528.446H598.121H603.105V420.342V427.201H598.621V420.342V419.842H598.121H528.446H527.946V420.342Z" fill="black" stroke="white"/>
<path d="M517.274 432.433C517.274 437.269 521.032 441.159 525.704 441.159C530.376 441.159 534.134 437.269 534.134 432.433C534.134 427.596 530.376 423.706 525.704 423.706C521.032 423.811 517.274 427.701 517.274 432.433Z" fill="white" stroke="white" stroke-width="0.75" stroke-miterlimit="10"/>
<path d="M525.704 435.297C524.168 435.297 522.954 434.065 522.954 432.433C522.954 430.895 524.178 429.568 525.704 429.568C527.23 429.568 528.454 430.895 528.454 432.433C528.454 434.065 527.24 435.297 525.704 435.297Z" fill="black" stroke="white"/>
<path d="M592.738 432.433C592.738 437.269 596.496 441.159 601.168 441.159C605.84 441.159 609.598 437.269 609.598 432.433C609.598 427.596 605.84 423.706 601.168 423.706C596.496 423.811 592.738 427.701 592.738 432.433Z" fill="white" stroke="white" stroke-width="0.75" stroke-miterlimit="10"/>
<path d="M601.168 435.297C599.632 435.297 598.418 434.065 598.418 432.433C598.418 430.925 599.615 429.666 601.182 429.568C602.702 429.577 603.918 430.899 603.918 432.433C603.918 434.055 602.612 435.297 601.168 435.297Z" fill="black" stroke="white"/>
<path d="M562.979 223.208L613.762 223.523C619.348 223.523 623.716 228.465 623.309 234.142L615.692 339.491C615.286 344.747 611.02 348.743 605.942 348.638L489.953 346.114C484.367 346.009 480.102 341.068 480.609 335.285C481.016 330.133 485.18 326.243 490.157 326.243L537.588 325.087C543.072 325.087 552.112 321.722 551.909 316.045L553.33 233.512C553.127 227.834 557.495 223.208 562.979 223.208Z" fill="white" stroke="black" stroke-width="0.75" stroke-miterlimit="10" stroke-linecap="round"/>
<path d="M608.786 234.773L597.105 323.825" stroke="black" stroke-width="0.75" stroke-miterlimit="10" stroke-linecap="round"/>
<path d="M548.455 323.089C548.557 322.879 581.972 323.089 581.972 323.089" stroke="black" stroke-width="0.75" stroke-miterlimit="10" stroke-linecap="round"/>
<path d="M433.787 375.868L430.232 412.667L455.014 415.19L458.671 378.392L433.787 375.868Z" fill="white" stroke="#141414" stroke-width="0.75" stroke-miterlimit="10" stroke-linecap="round" stroke-linejoin="round"/>
<path d="M437.139 376.184L433.686 412.982" stroke="#141414" stroke-width="0.75" stroke-miterlimit="10" stroke-linecap="round" stroke-linejoin="round"/>
<path d="M441.404 376.604L438.865 413.508" stroke="#141414" stroke-width="0.75" stroke-miterlimit="10" stroke-linecap="round" stroke-linejoin="round"/>
<path d="M445.67 377.025L443.232 413.613" stroke="#141414" stroke-width="0.75" stroke-miterlimit="10" stroke-linecap="round" stroke-linejoin="round"/>
<path d="M450.038 377.551L447.194 414.033" stroke="#141414" stroke-width="0.75" stroke-miterlimit="10" stroke-linecap="round" stroke-linejoin="round"/>
<path d="M454.608 377.971L451.663 415.505" stroke="#141414" stroke-width="0.75" stroke-miterlimit="10" stroke-linecap="round" stroke-linejoin="round"/>
<path d="M387.575 441.159L461.82 441.474L459.992 406.358L424.951 407.83L420.787 421.183L387.575 441.159Z" fill="white" stroke="#141414" stroke-width="0.75" stroke-miterlimit="10" stroke-linecap="round" stroke-linejoin="round"/>
<path d="M407.99 425.809L411.951 433.589" stroke="#141414" stroke-width="0.75" stroke-miterlimit="10" stroke-linecap="round" stroke-linejoin="round"/>
<path d="M413.881 422.865L417.842 430.75" stroke="#141414" stroke-width="0.75" stroke-miterlimit="10" stroke-linecap="round" stroke-linejoin="round"/>
<path d="M398.747 438.11H452.983" stroke="#141414" stroke-width="0.75" stroke-miterlimit="10" stroke-linecap="round" stroke-linejoin="round"/>
<path d="M476.242 376.815V413.823H501.126L501.227 376.815H476.242Z" fill="white" stroke="#141414" stroke-width="0.75" stroke-miterlimit="10" stroke-linecap="round" stroke-linejoin="round"/>
<path d="M479.695 376.815V413.823" stroke="#141414" stroke-width="0.75" stroke-miterlimit="10" stroke-linecap="round" stroke-linejoin="round"/>
<path d="M483.859 376.815L484.875 413.823" stroke="#141414" stroke-width="0.75" stroke-miterlimit="10" stroke-linecap="round" stroke-linejoin="round"/>
<path d="M488.227 376.815L489.242 413.508" stroke="#141414" stroke-width="0.75" stroke-miterlimit="10" stroke-linecap="round" stroke-linejoin="round"/>
<path d="M492.595 376.815L493.204 413.508" stroke="#141414" stroke-width="0.75" stroke-miterlimit="10" stroke-linecap="round" stroke-linejoin="round"/>
<path d="M497.165 376.815L497.876 414.454" stroke="#141414" stroke-width="0.75" stroke-miterlimit="10" stroke-linecap="round" stroke-linejoin="round"/>
<path d="M436.53 441.159L510.876 441.474L507.22 406.358L473.907 407.83L469.844 421.183L436.53 441.159Z" fill="white" stroke="#141414" stroke-width="0.75" stroke-miterlimit="10" stroke-linecap="round" stroke-linejoin="round"/>
<path d="M456.945 425.809L460.906 433.589" stroke="#141414" stroke-width="0.75" stroke-miterlimit="10" stroke-linecap="round" stroke-linejoin="round"/>
<path d="M462.836 422.865L466.797 430.75" stroke="#141414" stroke-width="0.75" stroke-miterlimit="10" stroke-linecap="round" stroke-linejoin="round"/>
<path d="M447.804 438.11H501.938" stroke="#141414" stroke-width="0.75" stroke-miterlimit="10" stroke-linecap="round" stroke-linejoin="round"/>
<path d="M482.539 386.487H421.701C421.701 386.487 427.49 284.398 451.663 283.137C480.914 281.665 494.93 283.137 494.93 283.137L482.539 386.487Z" fill="#141414"/>
<path d="M423.021 374.396L484.164 373.03" stroke="white" stroke-width="0.75" stroke-miterlimit="10" stroke-linecap="round" stroke-linejoin="round"/>
<path d="M577.097 279.457H535.557C484.469 275.672 464.156 288.393 464.156 308.264C464.156 321.617 466.797 392.375 466.797 392.375L512.197 391.008L509.251 326.874C509.251 326.874 541.956 331.5 562.37 325.402C582.684 319.199 577.097 279.457 577.097 279.457Z" fill="#141414"/>
<path d="M571.917 317.938C569.683 321.407 566.534 324.036 562.37 325.297C541.955 331.29 509.251 326.769 509.251 326.769" stroke="#DE5954" stroke-miterlimit="10" stroke-linecap="round"/>
<path d="M512.197 390.903L466.797 392.27C466.797 392.27 464.156 321.617 464.156 308.16C464.156 288.394 484.469 275.567 535.557 279.352" stroke="#DE5954" stroke-miterlimit="10" stroke-linecap="round"/>
<path d="M508.845 317.832L509.962 340.858" stroke="#DE5954" stroke-miterlimit="10" stroke-linecap="round"/>
<path d="M537.791 277.249L578.316 277.459C578.316 277.459 583.191 318.253 568.058 325.087C552.823 331.921 509.353 326.664 509.353 326.664" fill="#141414"/>
<path d="M509.251 326.664L514.634 391.324L461.921 392.27C461.921 392.27 455.522 314.363 460.804 299.749C466.085 285.134 472.687 274.621 537.791 277.249" fill="#141414"/>
<path d="M461.007 379.653L513.719 378.707" stroke="white" stroke-width="0.75" stroke-miterlimit="10" stroke-linecap="round" stroke-linejoin="round"/>
<path d="M514.634 391.324L509.251 326.664L508.845 317.832" stroke="white" stroke-width="0.75" stroke-miterlimit="10" stroke-linecap="round" stroke-linejoin="round"/>
<path d="M537.791 277.249C472.687 274.621 466.085 285.134 460.804 299.749C455.522 314.363 461.921 392.27 461.921 392.27" stroke="white" stroke-width="0.75" stroke-miterlimit="10" stroke-linecap="round" stroke-linejoin="round"/>
<path d="M460.194 192.192C467.304 198.815 485.992 219.738 485.992 219.738L501.532 204.178C501.532 204.178 480.609 177.367 477.156 174.213C474.007 171.374 472.078 173.477 472.585 176.947C471.671 176.106 465.577 170.954 462.226 170.008C458.773 169.061 457.858 171.69 458.468 172.426L459.077 172.636H458.976C458.671 172.426 458.265 172.321 457.96 172.216C454.608 171.059 453.39 173.687 455.015 175.054L455.218 175.159C454.71 175.159 454.405 175.159 454.1 175.37C452.577 176.421 452.983 178.314 454.202 179.155C452.78 178.629 451.968 179.05 451.561 179.68C450.546 181.363 451.155 183.676 460.194 192.192ZM454.71 179.365C454.507 179.365 454.405 179.26 454.202 179.26L454.71 179.365Z" fill="white"/>
<path d="M463.546 186.094C455.32 178.419 452.78 178.314 451.562 179.786C449.835 181.889 453.39 185.253 460.195 192.192C467 199.131 485.992 219.738 485.992 219.738L501.532 204.178C501.532 204.178 480.609 177.368 477.156 174.213C473.703 171.059 471.672 174.529 472.992 178.629C474.312 182.73 475.023 184.622 475.023 184.622C475.023 184.622 473.804 189.669 477.461 194.4" stroke="#141414" stroke-width="0.75" stroke-miterlimit="10" stroke-linecap="round" stroke-linejoin="round"/>
<path d="M468.117 183.676C468.117 183.676 456.944 173.478 454.202 175.475C452.679 176.527 453.085 178.419 454.304 179.26" stroke="#141414" stroke-width="0.75" stroke-miterlimit="10" stroke-linecap="round" stroke-linejoin="round"/>
<path d="M470.25 180.312C470.25 180.312 461.515 173.478 458.062 172.321C454.71 171.165 453.491 173.793 455.116 175.16" stroke="#141414" stroke-width="0.75" stroke-miterlimit="10" stroke-linecap="round" stroke-linejoin="round"/>
<path d="M472.484 176.842C472.484 176.842 465.883 170.849 462.328 169.903C458.875 168.957 457.961 171.795 458.57 172.531" stroke="#141414" stroke-width="0.75" stroke-miterlimit="10" stroke-linecap="round" stroke-linejoin="round"/>
<path d="M545.713 228.885L499.399 192.508L474.922 216.164L509.15 269.258L545.713 228.885Z" fill="#DE5954"/>
<path d="M545.713 228.885L499.399 192.508L474.922 216.164L509.15 269.258L545.713 228.885Z" stroke="#141414" stroke-width="0.75" stroke-miterlimit="10" stroke-linecap="round" stroke-linejoin="round"/>
<mask id="mask0_125_1148" style="mask-type:luminance" maskUnits="userSpaceOnUse" x="478" y="197" width="68" height="73">
<path d="M478.984 222.367L509.149 269.258L545.713 228.885L505.595 197.344L478.984 222.367Z" fill="white"/>
</mask>
<g mask="url(#mask0_125_1148)">
<path d="M521.134 207.122C520.016 205.545 518.391 204.598 516.563 204.388C513.008 204.073 509.86 206.806 509.555 210.591C509.25 214.376 511.891 217.741 515.446 218.161C517.477 218.371 519.407 217.53 520.829 215.953C521.946 217.53 523.571 218.477 525.399 218.687C528.954 219.002 532.103 216.269 532.407 212.484C532.712 208.699 530.071 205.334 526.517 204.914C524.384 204.809 522.454 205.545 521.134 207.122Z" stroke="white" stroke-width="0.75" stroke-miterlimit="10" stroke-linecap="round" stroke-linejoin="round"/>
<path d="M495.133 221.315C494.015 219.738 492.39 218.792 490.562 218.582C487.007 218.266 483.859 221 483.554 224.785C483.25 228.57 485.89 231.934 489.445 232.355C491.476 232.565 493.406 231.724 494.828 230.147C495.945 231.724 497.57 232.67 499.398 232.881C502.953 233.196 506.102 230.462 506.407 226.678C506.711 222.893 504.07 219.528 500.516 219.108C498.484 218.897 496.453 219.738 495.133 221.315Z" stroke="white" stroke-width="0.75" stroke-miterlimit="10" stroke-linecap="round" stroke-linejoin="round"/>
<path d="M488.43 201.339C487.312 199.762 485.687 198.816 483.859 198.606C480.304 198.29 477.156 201.024 476.851 204.809C476.546 208.594 479.187 211.958 482.742 212.379C484.773 212.589 486.703 211.748 488.125 210.171C489.242 211.748 490.867 212.694 492.695 212.904C496.25 213.22 499.399 210.486 499.703 206.701C500.008 202.916 497.367 199.552 493.813 199.131C491.781 198.921 489.75 199.762 488.43 201.339Z" stroke="white" stroke-width="0.75" stroke-miterlimit="10" stroke-linecap="round" stroke-linejoin="round"/>
</g>
<path d="M501.126 201.549L481.828 219.843" stroke="#141414" stroke-width="0.75" stroke-miterlimit="10" stroke-linecap="round" stroke-linejoin="round"/>
<path d="M513.212 281.244C513.212 281.244 517.071 223.944 535.455 199.972C547.033 184.833 556.479 181.258 564.401 181.889C564.401 181.889 585.425 210.066 589.386 247.179C593.347 284.293 592.027 294.597 556.784 293.44C521.54 292.284 513.212 281.244 513.212 281.244Z" fill="#DE5954"/>
<mask id="mask1_125_1148" style="mask-type:luminance" maskUnits="userSpaceOnUse" x="517" y="189" width="74" height="76">
<path d="M590.91 264.843C590.706 259.796 590.199 253.908 589.488 247.179C587.253 226.678 579.839 208.909 573.643 197.134L544.494 189.984C541.65 192.508 538.603 195.872 535.353 199.972C526.111 211.958 520.626 232.355 517.376 249.598L590.91 264.843Z" fill="white"/>
</mask>
<g mask="url(#mask1_125_1148)">
<path d="M539.009 198.29C537.891 196.713 536.266 195.767 534.438 195.557C530.883 195.241 527.735 197.975 527.43 201.76C527.125 205.545 529.766 208.909 533.321 209.33C535.352 209.54 537.282 208.699 538.704 207.122C539.821 208.699 541.446 209.645 543.274 209.856C546.829 210.171 549.978 207.437 550.282 203.652C550.587 199.867 547.946 196.503 544.392 196.082C542.259 195.872 540.329 196.713 539.009 198.29Z" stroke="white" stroke-width="0.75" stroke-miterlimit="10" stroke-linecap="round" stroke-linejoin="round"/>
<path d="M565.517 219.739C564.4 218.162 562.775 217.215 560.947 217.005C557.392 216.69 554.244 219.423 553.939 223.208C553.634 226.993 556.275 230.358 559.83 230.778C561.861 230.988 563.791 230.147 565.213 228.57C566.33 230.147 567.955 231.093 569.783 231.304C573.338 231.619 576.487 228.886 576.791 225.101C577.096 221.316 574.455 217.951 570.9 217.531C568.768 217.32 566.838 218.162 565.517 219.739Z" stroke="white" stroke-width="0.75" stroke-miterlimit="10" stroke-linecap="round" stroke-linejoin="round"/>
<path d="M526.212 230.357C525.095 228.78 523.469 227.834 521.641 227.624C518.087 227.308 514.938 230.042 514.633 233.827C514.329 237.612 516.969 240.976 520.524 241.397C522.555 241.607 524.485 240.766 525.907 239.189C527.024 240.766 528.649 241.712 530.478 241.923C534.032 242.238 537.181 239.504 537.486 235.719C537.79 231.935 535.15 228.57 531.595 228.15C529.462 227.939 527.532 228.78 526.212 230.357Z" stroke="white" stroke-width="0.75" stroke-miterlimit="10" stroke-linecap="round" stroke-linejoin="round"/>
<path d="M555.463 241.082C554.346 239.505 552.721 238.558 550.892 238.348C547.338 238.033 544.189 240.766 543.884 244.551C543.58 248.336 546.22 251.701 549.775 252.121C551.806 252.331 553.736 251.49 555.158 249.913C556.275 251.49 557.9 252.436 559.729 252.647C563.283 252.962 566.432 250.229 566.737 246.444C567.041 242.659 564.401 239.294 560.846 238.874C558.713 238.663 556.783 239.505 555.463 241.082Z" stroke="white" stroke-width="0.75" stroke-miterlimit="10" stroke-linecap="round" stroke-linejoin="round"/>
</g>
<path d="M513.212 281.244C513.212 281.244 517.071 223.944 535.455 199.972C547.033 184.833 556.479 181.258 564.401 181.889C564.401 181.889 585.425 210.066 589.386 247.179C593.347 284.293 592.027 294.597 556.784 293.44C521.54 292.284 513.212 281.244 513.212 281.244Z" stroke="#141414" stroke-width="0.75" stroke-miterlimit="10" stroke-linecap="round" stroke-linejoin="round"/>
<path d="M510.571 270.625C510.571 270.625 523.267 254.855 524.486 253.488C525.705 252.121 549.369 247.179 549.369 247.179L547.846 273.149L510.571 270.625Z" fill="white" stroke="#141414" stroke-width="0.75" stroke-miterlimit="10" stroke-linecap="round" stroke-linejoin="round"/>
<path d="M561.76 181.889C567.55 181.679 572.526 183.781 576.995 185.989C587.152 190.931 614.879 208.594 625.036 232.46C635.192 256.327 626.051 272.833 594.464 276.934C562.878 281.034 544.799 273.569 544.799 273.569L546.627 243.71L584.511 241.502L575.37 213.956L561.76 181.889Z" fill="#DE5954"/>
<mask id="mask2_125_1148" style="mask-type:luminance" maskUnits="userSpaceOnUse" x="544" y="187" width="85" height="92">
<path d="M625.036 232.355C615.895 210.802 592.433 194.295 580.448 187.671C576.183 190.09 564.706 194.821 561.354 196.713L574.456 212.589L584.613 241.397L546.729 243.605L544.9 273.464C544.9 273.464 562.979 281.034 594.566 276.828C626.051 272.728 635.192 256.221 625.036 232.355Z" fill="white"/>
</mask>
<g mask="url(#mask2_125_1148)">
<path d="M580.956 197.765C579.839 196.188 578.214 195.241 576.386 195.031C572.831 194.716 569.682 197.449 569.377 201.234C569.073 205.019 571.714 208.384 575.268 208.804C577.3 209.014 579.229 208.173 580.651 206.596C581.769 208.173 583.394 209.12 585.222 209.33C588.777 209.645 591.925 206.912 592.23 203.127C592.534 199.342 589.894 195.977 586.339 195.557C584.308 195.347 582.378 196.188 580.956 197.765Z" stroke="white" stroke-width="0.75" stroke-miterlimit="10" stroke-linecap="round" stroke-linejoin="round"/>
<path d="M612.035 211.643C610.918 210.066 609.293 209.12 607.465 208.909C603.91 208.594 600.761 211.327 600.457 215.112C600.152 218.897 602.793 222.262 606.347 222.682C608.379 222.893 610.308 222.052 611.73 220.474C612.848 222.052 614.473 222.998 616.301 223.208C619.856 223.523 623.004 220.79 623.309 217.005C623.614 213.22 620.973 209.856 617.418 209.435C615.387 209.225 613.355 210.066 612.035 211.643Z" stroke="white" stroke-width="0.75" stroke-miterlimit="10" stroke-linecap="round" stroke-linejoin="round"/>
<path d="M592.433 234.037C591.316 232.46 589.691 231.514 587.863 231.304C584.308 230.988 581.16 233.722 580.855 237.507C580.55 241.292 583.191 244.656 586.746 245.077C588.777 245.287 590.707 244.446 592.129 242.869C593.246 244.446 594.871 245.392 596.699 245.603C600.254 245.918 603.403 243.184 603.707 239.399C604.012 235.614 601.371 232.25 597.816 231.829C595.785 231.619 593.754 232.46 592.433 234.037Z" stroke="white" stroke-width="0.75" stroke-miterlimit="10" stroke-linecap="round" stroke-linejoin="round"/>
<path d="M630.622 249.913C629.505 248.336 627.88 247.39 626.052 247.18C622.497 246.864 619.348 249.598 619.043 253.383C618.739 257.168 621.379 260.532 624.934 260.953C626.966 261.163 628.895 260.322 630.317 258.745C631.434 260.322 633.06 261.268 634.888 261.478C638.443 261.794 641.591 259.06 641.896 255.275C642.2 251.49 639.56 248.126 636.005 247.705C633.872 247.6 631.942 248.336 630.622 249.913Z" stroke="white" stroke-width="0.75" stroke-miterlimit="10" stroke-linecap="round" stroke-linejoin="round"/>
<path d="M570.19 252.752C569.073 251.175 567.448 250.228 565.62 250.018C562.065 249.703 558.917 252.436 558.612 256.221C558.307 260.006 560.948 263.371 564.503 263.791C566.534 264.002 568.464 263.16 569.886 261.583C571.003 263.16 572.628 264.107 574.456 264.317C578.011 264.632 581.159 261.899 581.464 258.114C581.769 254.329 579.128 250.964 575.573 250.544C573.542 250.334 571.511 251.175 570.19 252.752Z" stroke="white" stroke-width="0.75" stroke-miterlimit="10" stroke-linecap="round" stroke-linejoin="round"/>
<path d="M595.785 275.882C594.668 274.305 593.043 273.359 591.215 273.149C587.66 272.833 584.511 275.567 584.207 279.352C583.902 283.137 586.543 286.501 590.097 286.922C592.129 287.132 594.058 286.291 595.48 284.714C596.598 286.291 598.223 287.237 600.051 287.447C603.606 287.763 606.754 285.029 607.059 281.244C607.364 277.459 604.723 274.095 601.168 273.674C599.035 273.569 597.105 274.305 595.785 275.882Z" stroke="white" stroke-width="0.75" stroke-miterlimit="10" stroke-linecap="round" stroke-linejoin="round"/>
</g>
<path d="M561.76 181.889C567.55 181.679 572.526 183.781 576.995 185.989C587.152 190.931 615.285 209.54 625.442 233.406C635.599 257.273 626.051 272.728 594.464 276.934C562.878 281.034 544.799 273.569 544.799 273.569L546.627 243.71L584.511 241.502L579.636 226.678" stroke="#141414" stroke-width="0.75" stroke-miterlimit="10" stroke-linecap="round" stroke-linejoin="round"/>
<path d="M554.041 245.497L552.416 273.779" stroke="#141414" stroke-width="0.75" stroke-miterlimit="10" stroke-linecap="round" stroke-linejoin="round"/>
<path d="M582.073 241.607L592.23 241.502" stroke="#141414" stroke-width="0.75" stroke-miterlimit="10" stroke-linecap="round" stroke-linejoin="round"/>
<path d="M568.464 130.792C574.964 134.156 578.722 142.042 577.91 150.453C576.792 162.018 567.042 170.639 567.042 170.639L566.331 151.399L565.214 150.768L568.464 130.792Z" fill="#141414"/>
<path d="M571.003 154.237C569.581 154.237 568.261 154.658 567.245 155.499V151.504C567.245 145.09 562.878 139.833 557.393 139.833H549.268C543.885 139.833 539.416 144.985 539.416 151.399V164.436C539.416 170.849 543.783 176.106 549.268 176.106H553.94V183.15C553.94 185.989 556.174 188.407 559.018 188.407H562.268C565.011 188.407 567.347 186.094 567.347 183.15V175.16V174.739V166.749C567.347 166.539 567.347 166.433 567.347 166.223C568.362 166.959 569.683 167.485 571.105 167.485C574.659 167.485 577.605 164.541 577.605 160.861C577.503 157.181 574.558 154.237 571.003 154.237Z" fill="white" stroke="#141414" stroke-width="0.75" stroke-miterlimit="10" stroke-linecap="round" stroke-linejoin="round"/>
<path d="M567.855 161.702C567.855 161.702 567.55 157.181 572.121 157.707" stroke="#141414" stroke-width="0.75" stroke-miterlimit="10" stroke-linecap="round" stroke-linejoin="round"/>
<path d="M571.206 132.579C568.261 130.161 564.401 128.794 560.136 129.215C539.315 121.645 531.596 142.041 539.01 147.614C541.143 149.191 552.01 150.032 556.174 145.721C556.479 146.562 556.885 147.719 557.495 149.191C558.917 152.24 561.964 154.448 564.401 155.815L562.675 164.331C562.675 164.331 552.62 161.807 546.424 161.807C540.229 161.807 539.416 164.436 539.416 164.436C539.416 164.436 539.518 173.162 545.815 175.37C551.198 177.158 553.94 176.106 553.94 176.106C553.94 176.106 560.745 174.319 564.097 170.534C565.519 168.852 566.23 167.905 566.94 166.328L567.245 156.025C567.448 155.815 567.651 155.709 567.855 155.499C567.855 155.499 569.378 154.132 571.003 154.132C572.527 154.132 574.05 154.763 575.167 155.604C576.894 152.03 571.206 132.579 571.206 132.579Z" fill="#141414"/>
<path d="M553.432 187.251C553.432 187.251 554.955 189.984 560.846 189.248C566.737 188.407 560.44 183.045 557.596 182.204C554.752 181.258 551.197 184.517 553.432 187.251Z" fill="white" stroke="#141414" stroke-width="0.75" stroke-miterlimit="10" stroke-linecap="round" stroke-linejoin="round"/>
<path d="M547.643 190.825C547.643 190.825 551.807 194.295 558.002 194.716C561.76 194.926 566.229 194.295 570.698 190.195" stroke="#141414" stroke-width="0.75" stroke-miterlimit="10" stroke-linecap="round" stroke-linejoin="round"/>
<path d="M567.245 176.316C567.245 176.316 571.511 179.681 574.354 184.622C574.354 184.622 570.089 190.3 560.034 193.454L557.596 182.099L554.447 192.403C554.447 192.403 550.588 191.351 548.15 186.935C548.15 186.935 549.775 182.94 553.635 178.84C553.635 178.84 555.057 181.363 557.494 181.994C559.932 182.73 566.128 179.05 567.245 176.316Z" fill="white" stroke="#141414" stroke-width="0.75" stroke-miterlimit="10" stroke-linecap="round" stroke-linejoin="round"/>
<path d="M548.049 160.756L544.799 158.653L547.744 153.712" stroke="#141414" stroke-width="0.75" stroke-miterlimit="10" stroke-linecap="round" stroke-linejoin="round"/>
<path d="M556.885 152.976L553.736 151.714" stroke="#141414" stroke-miterlimit="10" stroke-linecap="round" stroke-linejoin="round"/>
<path d="M543.377 151.819L540.33 152.239" stroke="#141414" stroke-miterlimit="10" stroke-linecap="round" stroke-linejoin="round"/>
<path d="M555.361 155.814C555.361 156.656 554.752 157.286 553.94 157.286C553.127 157.286 552.518 156.656 552.518 155.814C552.518 154.973 553.127 154.343 553.94 154.343C554.752 154.343 555.361 154.973 555.361 155.814Z" fill="#141414"/>
<path d="M543.174 155.394C543.174 156.13 542.666 156.656 541.955 156.656C541.244 156.656 540.736 156.13 540.736 155.394C540.736 154.658 541.244 154.132 541.955 154.132C542.666 154.132 543.174 154.658 543.174 155.394Z" fill="#141414"/>
<path d="M544.596 165.487C544.596 167.064 545.814 168.431 547.44 168.431C548.963 168.431 550.283 167.169 550.283 165.487H544.596Z" fill="white"/>
<path d="M257.267 222.262H302.362C305.917 222.262 308.456 225.626 307.644 229.201L297.385 272.518C296.776 275.041 294.643 276.828 292.104 276.828H239.188C235.329 276.828 232.688 272.728 234.212 269.048L252.29 225.731C253.103 223.629 255.033 222.262 257.267 222.262Z" fill="#141414"/>
<path d="M258.079 225.626H299.721C302.057 225.626 303.885 227.939 303.276 230.357L293.728 270.625C293.322 272.307 291.9 273.569 290.174 273.569H241.219C238.578 273.569 236.852 270.73 237.867 268.312L254.626 228.044C255.337 226.467 256.657 225.626 258.079 225.626Z" fill="#236AD9"/>
<path d="M243.048 273.464H282.963C285.197 273.464 287.026 271.992 287.635 269.784L296.979 233.827C297.792 230.673 295.456 227.519 292.307 227.519H257.978C256.048 227.519 254.321 228.675 253.509 230.568L238.68 266.42C237.258 269.784 239.594 273.464 243.048 273.464Z" fill="white"/>
<path d="M243.657 231.198H293.729L293.932 230.462H244.063L243.657 231.198Z" fill="#141414"/>
<path d="M292.814 234.878H242.234V235.614H292.611L292.814 234.878Z" fill="#141414"/>
<path d="M291.697 239.294H242.234V240.03H291.494L291.697 239.294Z" fill="#141414"/>
<path d="M290.478 243.71H240.711V244.446H290.275L290.478 243.71Z" fill="#141414"/>
<path d="M289.361 248.125H238.984V248.861H289.158L289.361 248.125Z" fill="#141414"/>
<path d="M227.711 262.109H262.243V261.373H228.117L227.711 262.109Z" fill="#141414"/>
<path d="M270.368 252.541H232.688L232.281 253.277H270.165L270.368 252.541Z" fill="#141414"/>
<path d="M269.251 256.957H230.352L230.047 257.693H269.048L269.251 256.957Z" fill="#141414"/>
<path d="M46.4154 63.6084H94.3545C100.448 63.6084 105.425 68.7602 105.425 75.0684V95.3601V102.404V124.588L94.1513 113.864H46.4154C40.3215 113.864 35.3447 108.713 35.3447 102.404V75.0684C35.3447 68.7602 40.3215 63.6084 46.4154 63.6084Z" fill="white" stroke="black" stroke-width="0.75" stroke-miterlimit="10" stroke-linecap="round" stroke-linejoin="round"/>
<path d="M55.752 102.956V82.6128H89.1828V102.956H55.752Z" fill="black" stroke="black"/>
<path d="M86.1273 73.7017H43.9775V99.7759H86.1273V73.7017Z" fill="white" stroke="black" stroke-width="0.75" stroke-miterlimit="10" stroke-linecap="round" stroke-linejoin="round"/>
<path d="M43.9775 73.7017L64.9001 92.4162L86.1274 73.7017" stroke="black" stroke-width="0.75" stroke-miterlimit="10" stroke-linecap="round" stroke-linejoin="round"/>
<path d="M43.9775 99.776L57.3842 85.6875" stroke="black" stroke-width="0.75" stroke-miterlimit="10" stroke-linecap="round" stroke-linejoin="round"/>
<path d="M72.5176 85.6875L86.1274 99.776" stroke="black" stroke-width="0.75" stroke-miterlimit="10" stroke-linecap="round" stroke-linejoin="round"/>
<path d="M116.293 286.291H105.629V441.474H116.293V286.291Z" fill="white" stroke="#141414" stroke-width="0.75" stroke-miterlimit="10" stroke-linecap="round" stroke-linejoin="round"/>
<path d="M624.326 286.291H613.661V441.474H624.326V286.291Z" fill="white" stroke="#141414" stroke-width="0.75" stroke-miterlimit="10" stroke-linecap="round" stroke-linejoin="round"/>
<path d="M650.326 289.024H84.0969C80.9483 289.024 78.4092 286.396 78.4092 283.136C78.4092 279.877 80.9483 277.249 84.0969 277.249H650.326C653.475 277.249 656.014 279.877 656.014 283.136C656.014 286.396 653.475 289.024 650.326 289.024Z" fill="white" stroke="#141414" stroke-width="0.75" stroke-miterlimit="10" stroke-linecap="round" stroke-linejoin="round"/>
<path d="M292.408 192.928C292.916 189.879 292.103 189.354 292.103 189.354L291.595 190.09C291.9 188.933 291.9 187.987 291.494 187.671C289.666 186.199 286.72 187.987 282.15 193.033C277.275 198.501 267.016 202.286 267.016 202.286C268.337 198.606 270.063 188.407 267.118 188.197C262.649 187.987 261.227 198.29 258.282 201.76C255.438 205.335 242.336 220.264 242.336 220.264L262.243 227.519C262.243 227.519 271.282 215.323 280.525 211.012C289.767 206.701 292.916 199.447 293.22 196.713C293.424 194.085 292.408 192.928 292.408 192.928Z" fill="white"/>
<path d="M292.103 189.354C292.103 189.354 293.017 189.879 292.306 193.664C291.595 197.344 286.415 204.283 286.415 204.283" stroke="#141414" stroke-width="0.75" stroke-miterlimit="10" stroke-linecap="round" stroke-linejoin="round"/>
<path d="M292.408 192.928C292.408 192.928 293.322 194.19 293.119 196.818C292.916 199.447 289.666 206.806 280.423 211.117C271.181 215.428 262.141 227.624 262.141 227.624L242.234 220.369C242.234 220.369 255.235 205.44 258.18 201.865C261.024 198.29 262.548 187.987 267.016 188.302C269.962 188.512 268.235 198.711 266.915 202.391C266.915 202.391 275.243 199.552 280.423 194.716C285.806 189.774 289.158 185.253 291.392 187.776C293.119 189.774 286.619 200.183 284.587 201.97" stroke="#141414" stroke-width="0.75" stroke-miterlimit="10" stroke-linecap="round" stroke-linejoin="round"/>
<path d="M178.451 162.754L184.647 168.852L181.193 172.426L178.451 162.754Z" fill="white" stroke="#141414" stroke-width="0.75" stroke-miterlimit="10" stroke-linecap="round" stroke-linejoin="round"/>
<path d="M154.786 179.471C154.888 179.786 154.989 180.207 155.091 180.522C155.091 180.943 155.091 181.363 155.192 181.784L154.786 179.471L170.326 187.987V187.882L174.998 186.83C180.381 185.569 183.631 179.471 182.31 173.162L179.568 160.23C178.248 153.922 172.763 149.822 167.38 150.978L159.357 152.871C153.974 154.132 150.724 160.23 152.044 166.539L154.786 179.471Z" fill="white"/>
<path d="M182.31 173.162L179.568 160.23C178.248 153.922 172.763 149.822 167.38 150.978L159.357 152.871C153.974 154.132 150.724 160.23 152.044 166.539L154.786 179.471C154.888 179.786 154.989 180.207 155.091 180.522C155.091 180.943 155.091 181.363 155.192 181.784L156.005 182.204L156.513 199.552H172.966L172.154 187.461L174.998 186.83C180.381 185.569 183.631 179.471 182.31 173.162Z" fill="white" stroke="#141414" stroke-width="0.75" stroke-miterlimit="10" stroke-linecap="round" stroke-linejoin="round"/>
<path d="M155.497 174.424L156.817 169.903C156.817 169.903 172.56 167.38 179.466 150.032C182.107 143.619 177.638 137.521 170.529 137.415C161.489 137.31 153.466 142.567 153.466 142.567C153.466 142.567 132.543 152.555 139.246 174.424C139.246 174.424 142.801 187.251 156.513 187.776" fill="#141414"/>
<path d="M147.067 177.894C147.474 181.363 150.521 183.781 153.872 183.256C157.224 182.835 159.56 179.681 159.154 176.211C158.747 172.742 155.7 170.324 152.349 170.849C148.997 171.27 146.661 174.424 147.067 177.894Z" fill="white"/>
<path d="M156.513 177.473C156.513 177.473 156.208 173.267 152.146 174.214" stroke="#141414" stroke-width="0.75" stroke-miterlimit="10" stroke-linecap="round" stroke-linejoin="round"/>
<path d="M122.184 149.401C130.817 141.411 126.856 121.645 114.972 118.701C100.652 115.126 90.495 133.841 79.729 116.914C68.963 99.9863 54.4391 103.771 49.564 119.121C44.6888 134.472 60.4315 150.137 76.2758 149.086C92.12 148.034 96.4874 137.205 102.277 145.406C107.964 153.607 116.801 154.448 122.184 149.401Z" stroke="#141414" stroke-width="0.75" stroke-miterlimit="10" stroke-linecap="round" stroke-linejoin="round"/>
<path d="M138.942 153.081C138.942 155.394 137.113 157.287 134.879 157.287C132.645 157.287 130.816 155.394 130.816 153.081C130.816 150.768 132.645 148.876 134.879 148.876C137.113 148.77 138.942 150.768 138.942 153.081Z" stroke="#141414" stroke-width="0.75" stroke-miterlimit="10" stroke-linecap="round" stroke-linejoin="round"/>
<path d="M148.286 203.652L156.208 193.875L176.42 194.61L183.733 203.127C183.834 203.022 170.123 203.652 148.286 203.652Z" fill="#68A3FF"/>
<path d="M192.873 262.635C211.765 273.779 229.437 279.772 236.039 275.462C249.141 266.735 269.962 221.631 269.962 221.631L248.633 208.068L224.359 232.776C224.359 232.776 199.475 208.594 186.881 203.337C181.396 201.024 151.333 202.075 151.333 202.075C151.333 202.075 148.388 203.022 146.966 203.652C130.309 211.222 126.348 236.981 120.863 272.938L120.762 276.934L193.178 277.564L192.873 262.635Z" fill="#68A3FF"/>
<path d="M223.851 232.145L229.335 238.032" stroke="white" stroke-width="0.75" stroke-miterlimit="10" stroke-linecap="round"/>
<path d="M244.164 212.589L266.915 227.939" stroke="white" stroke-width="0.75" stroke-miterlimit="10" stroke-linecap="round"/>
<path d="M150.216 202.601C150.216 202.601 162.81 202.18 167.076 202.18C171.24 202.18 183.936 203.022 183.936 203.022" stroke="white" stroke-width="0.75" stroke-miterlimit="10" stroke-linecap="round"/>
<path d="M171.544 168.641C171.645 169.693 172.458 170.534 173.474 170.429C174.489 170.323 175.302 169.482 175.2 168.431C175.099 167.38 174.286 166.539 173.27 166.644C172.255 166.644 171.442 167.59 171.544 168.641Z" fill="#141414"/>
<path d="M182.107 179.576C182.107 179.576 179.669 181.258 176.927 178.524" stroke="#141414" stroke-width="0.75" stroke-miterlimit="10"/>
<path d="M169.31 166.223C170.122 165.277 170.935 164.436 171.95 163.595" stroke="#141414" stroke-width="0.75" stroke-miterlimit="10"/>
<path d="M208.718 397.001L215.827 441.369L231.875 441.475L232.179 431.381L250.055 441.159C250.055 441.159 254.626 441.264 258.485 441.159C261.43 441.054 264.274 441.475 264.274 440.633C264.173 433.905 257.977 427.807 239.594 411.721L237.461 395.529L208.718 397.001Z" fill="#236AD9" stroke="#141414" stroke-miterlimit="10"/>
<path d="M176.419 326.664L202.42 412.982H274.837L230.249 296.069L159.966 286.291L176.419 326.664Z" fill="white"/>
<path d="M164.333 296.909V291.337H163.317V294.386L164.333 296.909Z" fill="#236AD9"/>
<path d="M263.258 403.73V402.678H230.858V386.908H263.258V385.856H230.858V370.086H258.484L258.078 369.034H230.858V353.264H252.086L251.679 352.212H230.858V336.441H245.687L245.281 335.39H230.858V319.619H239.187L238.78 318.568H230.858V297.646L230.249 296.069L229.843 295.963V318.568H214.202V293.861L213.186 293.755V318.568H197.545V291.442L196.529 291.337V318.568H180.888V291.232H179.872V318.568H173.067L173.474 319.619H179.872V335.39H178.958L179.263 336.441H179.872V338.334L180.888 341.698V336.441H196.529V352.212H184.036L184.341 353.264H196.529V369.034H189.115L189.419 370.086H196.529V385.856H194.193L194.498 386.908H196.529V393.637L197.545 397.001V386.908H213.186V402.678H199.271L199.576 403.73H213.186V413.087H214.202V403.73H229.843V413.087H230.858V403.73H263.258ZM196.529 335.39H180.888V319.619H196.529V335.39ZM213.186 385.856H197.545V370.086H213.186V385.856ZM213.186 369.034H197.545V353.264H213.186V369.034ZM213.186 352.212H197.545V336.441H213.186V352.212ZM213.186 335.39H197.545V319.619H213.186V335.39ZM229.843 402.678H214.202V386.908H229.843V402.678ZM229.843 385.856H214.202V370.086H229.843V385.856ZM229.843 369.034H214.202V353.264H229.843V369.034ZM229.843 352.212H214.202V336.441H229.843V352.212ZM229.843 335.39H214.202V319.619H229.843V335.39Z" fill="#236AD9"/>
<path d="M176.419 326.664L202.42 412.982H274.837L230.249 296.069L159.966 286.291" stroke="#141414" stroke-miterlimit="10"/>
<path d="M244.469 397.842L253.203 441.369L268.235 441.475L268.54 431.381L282.556 441.475C279.509 441.58 290.986 441.264 294.845 441.159C297.791 441.054 300.635 441.475 300.635 440.633C300.533 433.905 294.338 427.807 275.954 411.721L273.821 395.529L244.469 397.842Z" fill="#236AD9" stroke="#141414" stroke-miterlimit="10"/>
<path d="M217.148 328.346L238.578 412.982H290.479C290.479 412.982 263.36 309.737 251.274 296.069C239.188 282.401 199.882 283.137 199.882 283.137L217.148 328.346Z" fill="white"/>
<path d="M286.72 399.104H276.462V383.333H282.252C282.15 383.018 282.048 382.597 281.947 382.282H276.462V366.511H277.478C277.376 366.195 277.275 365.775 277.173 365.46H276.564V363.252C276.259 362.095 275.853 361.044 275.548 359.887V365.46H259.907V349.689H272.4C272.298 349.373 272.196 348.953 272.095 348.637H259.907V332.867H267.017C266.915 332.551 266.814 332.131 266.712 331.815H259.907V316.045H261.024C260.923 315.729 260.72 315.309 260.618 314.993H259.907V313.101C259.602 312.26 259.196 311.419 258.891 310.577V314.993H243.25V299.223H253.508C253.305 298.802 253.102 298.487 252.899 298.171H243.25V290.286C242.946 290.076 242.539 289.97 242.235 289.76V298.171H226.593V285.239C226.289 285.134 225.882 285.134 225.578 285.029V298.066H209.937V283.242C209.632 283.242 209.226 283.242 208.921 283.136V297.961H205.671L206.077 299.012H208.921V306.582L209.937 309.211V299.012H225.578V314.783H212.07L212.476 315.834H225.578V331.605H217.96L218.265 332.656H225.578V348.427H222.226L222.531 349.479H225.578V361.464L226.797 366.195H242.235V381.966H230.758L231.062 383.018H242.235V398.788H235.023L235.328 399.84H242.235V412.666H243.25V399.84H258.891V412.666H259.907V399.84H275.548V412.666H276.564V399.84H287.127C286.924 399.84 286.822 399.419 286.72 399.104ZM242.235 365.46H226.593V349.689H242.235V365.46ZM242.235 348.637H226.593V332.867H242.235V348.637ZM242.235 331.921H226.593V316.15H242.235V331.921ZM242.235 315.098H226.593V299.328H242.235V315.098ZM258.891 399.104H243.25V383.333H258.891V399.104ZM258.891 382.282H243.25V366.511H258.891V382.282ZM258.891 365.46H243.25V349.689H258.891V365.46ZM258.891 348.637H243.25V332.867H258.891V348.637ZM258.891 331.921H243.25V316.15H258.891V331.921ZM275.548 399.104H259.907V383.333H275.548V399.104ZM275.548 382.282H259.907V366.511H275.548V382.282Z" fill="#236AD9"/>
<path d="M217.148 328.346L238.578 412.982H290.479C290.479 412.982 263.36 309.737 251.274 296.069C239.188 282.401 199.882 283.137 199.882 283.137" stroke="#141414" stroke-miterlimit="10"/>
<path d="M19.1963 441.474H691.156" stroke="#141414" stroke-width="0.75" stroke-miterlimit="10" stroke-linecap="round" stroke-linejoin="round"/>
<path d="M478.679 276.933L528.142 277.038C533.322 277.038 535.962 272.938 534.033 267.786L521.134 232.355C519.306 227.308 513.618 223.103 508.438 223.103L458.976 222.998C453.796 222.998 451.155 227.098 453.085 232.25L466.085 267.786C467.913 272.833 473.601 276.933 478.679 276.933Z" fill="#141414"/>
<path d="M486.195 247.179C486.804 249.387 489.039 251.28 491.172 251.28C493.305 251.28 494.625 249.492 494.016 247.179C493.406 244.971 491.172 243.079 489.039 243.079C486.906 243.079 485.586 244.971 486.195 247.179Z" fill="white"/>
<path d="M573.135 275.777V270.52C573.135 269.889 572.628 269.258 571.917 269.258L522.149 269.153C521.54 269.153 520.931 269.679 520.931 270.415V275.672C520.931 276.302 521.438 276.933 522.149 276.933L571.917 277.038C572.628 277.038 573.135 276.513 573.135 275.777Z" fill="#141414"/>
<path d="M603.809 244.025H601.879H589.488L592.84 277.249H601.879H603.809H612.848L616.2 244.025H603.809Z" fill="white" stroke="#141414" stroke-width="0.75" stroke-miterlimit="10" stroke-linecap="round" stroke-linejoin="round"/>
<path d="M591.926 267.997H613.864L615.591 250.964H590.199L591.926 267.997Z" fill="#236AD9" stroke="#141414" stroke-width="0.75" stroke-miterlimit="10" stroke-linecap="round" stroke-linejoin="round"/>
<path d="M613.661 240.766H592.231C591.418 240.766 590.707 240.03 590.707 239.189V236.245C590.707 235.404 591.418 234.668 592.231 234.668H613.661C614.473 234.668 615.184 235.404 615.184 236.245V239.189C615.184 240.03 614.473 240.766 613.661 240.766Z" fill="#141414"/>
<path d="M617.419 244.551H588.473C587.356 244.551 586.543 243.605 586.543 242.553V240.45C586.543 239.294 587.457 238.453 588.473 238.453H617.419C618.536 238.453 619.349 239.399 619.349 240.45V242.553C619.45 243.71 618.536 244.551 617.419 244.551Z" fill="#141414"/>
<path d="M351.824 5.78247H332.323H318.713H309.573C305.307 5.78247 301.955 9.35716 301.955 13.6678V32.5927C301.955 32.9081 301.955 33.3286 302.057 33.644C302.057 33.9594 301.955 34.38 301.955 34.6954V53.6202C301.955 58.036 305.408 61.5056 309.573 61.5056H318.713H332.323H351.722L359.543 68.8652V53.6202V48.6788V47.8377V34.8005V32.6978V27.7563V13.773C359.441 9.35716 355.988 5.78247 351.824 5.78247Z" fill="white" stroke="black" stroke-miterlimit="10" stroke-linecap="round" stroke-linejoin="round"/>
<path d="M331.41 23.4456H329.785H319.526L322.269 50.8866H329.785H331.41H338.824L341.566 23.4456H331.41Z" fill="white" stroke="black" stroke-width="0.75" stroke-miterlimit="10" stroke-linecap="round" stroke-linejoin="round"/>
<path d="M340.505 29.623L339.184 42.7115H322.01L320.689 29.623H340.505Z" fill="black" stroke="black"/>
<path d="M339.535 20.212H321.862C321.444 20.212 321.144 19.9266 321.144 19.4503V17.0322C321.144 16.5559 321.444 16.2705 321.862 16.2705H339.535C339.953 16.2705 340.254 16.5559 340.254 17.0322V19.4503C340.254 19.6091 340.172 19.8056 340.013 19.9703C339.853 20.1362 339.671 20.212 339.535 20.212Z" fill="black" stroke="black"/>
<path d="M342.582 23.3662H318.714C318.092 23.3662 317.589 22.8705 317.589 22.184V20.5018C317.589 19.8152 318.092 19.3196 318.714 19.3196H342.582C343.204 19.3196 343.707 19.8153 343.707 20.5018V22.184C343.707 22.8705 343.204 23.3662 342.582 23.3662Z" fill="black" stroke="black"/>
<path d="M479.288 98.4092H515.04C519.61 98.4092 523.266 102.194 523.266 106.925V122.065V127.322V143.934L514.836 135.943H479.187C474.616 135.943 470.96 132.158 470.96 127.427V107.03C470.96 102.194 474.718 98.4092 479.288 98.4092Z" fill="white" stroke="black" stroke-width="0.75" stroke-miterlimit="10" stroke-linecap="round" stroke-linejoin="round"/>
<path d="M463.952 83.6899H499.704C504.274 83.6899 507.93 87.4749 507.93 92.2061V107.346V112.603V129.215L499.5 121.224H463.851C459.28 121.224 455.624 117.439 455.624 112.708V92.2061C455.624 87.4749 459.382 83.6899 463.952 83.6899Z" fill="white" stroke="black" stroke-width="0.75" stroke-miterlimit="10" stroke-linecap="round" stroke-linejoin="round"/>
<path d="M493.481 99.96L493.494 99.9607H493.508C495.155 99.9607 496.563 101.307 496.563 103.141C496.563 104.888 495.238 106.32 493.508 106.32C491.861 106.32 490.453 104.974 490.453 103.141C490.453 101.281 491.88 99.8728 493.481 99.96Z" fill="black" stroke="black"/>
<path d="M480.988 99.96L481.001 99.9607H481.015C482.661 99.9607 484.07 101.307 484.07 103.141C484.07 104.888 482.745 106.32 481.015 106.32C479.368 106.32 477.96 104.974 477.96 103.141C477.96 101.281 479.386 99.8728 480.988 99.96Z" fill="black" stroke="black"/>
<path d="M468.523 106.32C466.876 106.32 465.468 104.974 465.468 103.14C465.468 101.307 466.876 99.9604 468.523 99.9604C470.169 99.9604 471.577 101.307 471.577 103.14C471.577 104.878 470.16 106.32 468.523 106.32Z" fill="black" stroke="black"/>
<path d="M658.858 363.777L658.37 363.669L659.337 363.921C666.285 340.714 675.561 319.656 684.363 306.172C688.772 299.418 693.025 294.623 696.764 292.381C698.628 291.263 700.317 290.808 701.81 291.007C703.289 291.205 704.663 292.056 705.884 293.734C706.789 294.987 707.136 297.231 706.923 300.367C706.711 303.472 705.958 307.335 704.792 311.717C702.459 320.478 698.492 331.237 693.983 342.005C689.474 352.769 684.43 363.528 679.949 372.283C675.567 380.846 671.745 387.448 669.5 390.28L644.009 388.439C643.432 366.429 644.854 340.476 647.888 320.932C649.416 311.084 651.348 302.903 653.621 297.674C654.762 295.05 655.96 293.239 657.178 292.311C657.778 291.854 658.366 291.624 658.946 291.597C659.525 291.57 660.147 291.743 660.82 292.177C662.172 293.055 663.214 294.773 663.959 297.231C664.7 299.677 665.125 302.78 665.3 306.318C665.65 313.392 665 322.119 663.973 330.625C662.946 339.127 661.545 347.389 660.401 353.527C659.828 356.595 659.32 359.132 658.956 360.901C658.773 361.785 658.627 362.478 658.526 362.949C658.475 363.185 658.436 363.365 658.41 363.486L658.38 363.624L658.372 363.658L658.37 363.667L658.37 363.669C658.37 363.669 658.37 363.669 658.858 363.777Z" fill="black" stroke="black"/>
<path d="M651.284 384.147C651.405 384.94 651.503 385.581 651.577 386.05L640.571 387.316C637.514 380.774 629.449 360.63 623.725 341.359C620.814 331.557 618.518 322.009 617.788 314.604C617.422 310.898 617.454 307.765 617.976 305.418C618.501 303.065 619.49 301.613 620.949 301.057L620.949 301.057L620.951 301.056C623.053 300.243 625.074 300.735 627.066 302.345C629.08 303.972 631.022 306.715 632.871 310.293C636.565 317.44 639.794 327.733 642.49 338.495C647.144 357.072 650.179 376.926 651.284 384.147Z" fill="black" stroke="black"/>
<path d="M652.154 374.922L657.334 307.739" stroke="black" stroke-width="0.75" stroke-miterlimit="10" stroke-linecap="round" stroke-linejoin="round"/>
<path d="M698.163 299.748L661.396 381.966" stroke="black" stroke-width="0.75" stroke-miterlimit="10" stroke-linecap="round" stroke-linejoin="round"/>
<path d="M643.521 381.966L623.614 309.316" stroke="black" stroke-width="0.75" stroke-miterlimit="10" stroke-linecap="round" stroke-linejoin="round"/>
<path d="M678.968 440.974H630.419C628.274 440.974 626.552 439.217 626.552 436.954V391.008C626.552 388.745 628.274 386.987 630.419 386.987H678.968C681.113 386.987 682.835 388.745 682.835 391.008V436.954C682.835 439.217 681.113 440.974 678.968 440.974Z" fill="black" stroke="black"/>
<path d="M650.189 88.1259C663.27 76.9853 665.15 56.9767 654.388 43.4355C643.626 29.8942 624.297 27.9481 611.216 39.0887C598.135 50.2293 596.255 70.2379 607.017 83.7791C617.779 97.3204 637.108 99.2665 650.189 88.1259Z" stroke="white" stroke-width="0.75" stroke-miterlimit="10"/>
<path d="M655.538 69.9897C658.949 55.7901 650.594 41.4168 636.877 37.8859C623.16 34.3551 609.275 43.0038 605.864 57.2033C602.454 71.4028 610.808 85.7761 624.525 89.307C638.243 92.8379 652.128 84.1892 655.538 69.9897Z" fill="black" stroke="white" stroke-width="0.75" stroke-miterlimit="10"/>
<path d="M638.341 41.1089L637.325 44.0528" stroke="white" stroke-width="0.75" stroke-miterlimit="10" stroke-linecap="round" stroke-linejoin="round"/>
<path d="M623.918 83.0591L622.902 86.0029" stroke="white" stroke-width="0.75" stroke-miterlimit="10" stroke-linecap="round" stroke-linejoin="round"/>
<path d="M608.785 55.7231L611.934 56.8797" stroke="white" stroke-width="0.75" stroke-miterlimit="10" stroke-linecap="round" stroke-linejoin="round"/>
<path d="M649.31 70.6526L652.458 71.8091" stroke="white" stroke-width="0.75" stroke-miterlimit="10" stroke-linecap="round" stroke-linejoin="round"/>
<path d="M626.255 39.9524L626.864 43.7374" stroke="white" stroke-width="0.75" stroke-miterlimit="10" stroke-linecap="round" stroke-linejoin="round"/>
<path d="M615.793 45.6299L617.926 48.2583" stroke="white" stroke-width="0.75" stroke-miterlimit="10" stroke-linecap="round" stroke-linejoin="round"/>
<path d="M608.074 68.0242L611.426 67.1831" stroke="white" stroke-width="0.75" stroke-miterlimit="10" stroke-linecap="round" stroke-linejoin="round"/>
<path d="M612.848 78.9586L615.488 76.7507" stroke="white" stroke-width="0.75" stroke-miterlimit="10" stroke-linecap="round" stroke-linejoin="round"/>
<path d="M634.786 87.0543L634.075 83.5847" stroke="white" stroke-width="0.75" stroke-miterlimit="10" stroke-linecap="round" stroke-linejoin="round"/>
<path d="M645.45 81.7972L643.216 78.9585" stroke="white" stroke-width="0.75" stroke-miterlimit="10" stroke-linecap="round" stroke-linejoin="round"/>
<path d="M653.169 59.4028L649.411 59.8234" stroke="white" stroke-width="0.75" stroke-miterlimit="10" stroke-linecap="round" stroke-linejoin="round"/>
<path d="M647.989 48.7839L645.45 50.5713" stroke="white" stroke-width="0.75" stroke-miterlimit="10" stroke-linecap="round" stroke-linejoin="round"/>
<path d="M633.702 64.7133C633.081 66.4407 631.34 67.2508 629.671 66.7116C628.023 66.0761 627.212 64.2682 627.745 62.5037C628.365 60.7778 630.104 59.9676 631.771 60.5039C633.339 61.1446 634.229 62.9659 633.702 64.7133Z" fill="white" stroke="white"/>
<path d="M636.615 47.5222L630.927 64.0289L616.403 67.919" stroke="white" stroke-miterlimit="10" stroke-linecap="round" stroke-linejoin="round"/>
<path d="M190.532 397.823H199.978V334.53H190.532V397.823Z" fill="#EB8096" stroke="#EB8096" stroke-width="0.75" stroke-miterlimit="10"/>
<path d="M198.155 417.528H192.365C190.22 417.528 188.498 415.771 188.498 413.508V368.508C188.498 366.245 190.22 364.488 192.365 364.488H198.155C200.3 364.488 202.022 366.245 202.022 368.508V413.508C202.022 415.771 200.3 417.528 198.155 417.528Z" fill="white" stroke="#EB8096"/>
<path d="M159.974 420.026V426.886H155.489V420.026V414.008H158.138H160.474H230.046H235.031V420.026V426.886H230.546V420.026V419.526H230.046H160.474H159.974V420.026Z" fill="white" stroke="#EB8096"/>
<path d="M149.2 432.117C149.2 436.953 152.958 440.844 157.63 440.844C162.302 440.844 166.06 436.953 166.06 432.117C166.06 427.281 162.302 423.391 157.63 423.391C152.958 423.391 149.2 427.281 149.2 432.117Z" fill="#EB8096" stroke="#EB8096" stroke-width="0.75" stroke-miterlimit="10"/>
<path d="M157.63 434.982C156.094 434.982 154.88 433.75 154.88 432.117C154.88 430.589 156.196 429.253 157.63 429.253C159.156 429.253 160.38 430.579 160.38 432.117C160.38 433.74 159.074 434.982 157.63 434.982Z" fill="white" stroke="#EB8096"/>
<path d="M224.664 432.117C224.664 436.953 228.422 440.844 233.094 440.844C237.766 440.844 241.524 436.953 241.524 432.117C241.524 427.281 237.766 423.391 233.094 423.391C228.422 423.391 224.664 427.281 224.664 432.117Z" fill="#EB8096" stroke="#EB8096" stroke-width="0.75" stroke-miterlimit="10"/>
<path d="M233.094 434.982C231.558 434.982 230.344 433.75 230.344 432.117C230.344 430.579 231.568 429.253 233.094 429.253C234.62 429.253 235.844 430.579 235.844 432.117C235.844 433.75 234.63 434.982 233.094 434.982Z" fill="white" stroke="#EB8096"/>
<path d="M282.251 342.329H120.457C117.105 342.329 114.363 339.701 114.16 336.231L107.05 230.147C106.847 226.362 109.691 223.103 113.347 223.103H198.663C201.811 223.103 204.452 225.416 204.96 228.57L219.89 323.615C220.398 326.769 223.038 329.082 226.187 329.082H282.353C285.095 329.082 287.533 330.869 288.345 333.603C289.666 337.913 286.619 342.329 282.251 342.329Z" fill="#EB8096" stroke="white" stroke-width="0.75" stroke-miterlimit="10" stroke-linecap="round"/>
<path d="M114.566 247.705H187.897" stroke="white" stroke-width="0.75" stroke-miterlimit="10" stroke-linecap="round"/>
<path d="M114.566 271.887H192.061" stroke="white" stroke-width="0.75" stroke-miterlimit="10" stroke-linecap="round"/>
<path d="M119.238 296.069H196.835" stroke="white" stroke-width="0.75" stroke-miterlimit="10" stroke-linecap="round"/>
<path d="M119.238 320.25H196.835" stroke="white" stroke-width="0.75" stroke-miterlimit="10" stroke-linecap="round"/>
<path d="M193.482 228.149L208.413 330.659" stroke="white" stroke-width="0.75" stroke-miterlimit="10" stroke-linecap="round"/>
<path d="M668.099 441.474H587.558C584.714 441.474 582.479 439.161 582.479 436.217V381.651C582.479 378.707 584.714 376.394 587.558 376.394H668.099C670.943 376.394 673.178 378.707 673.178 381.651V436.112C673.178 439.056 670.842 441.474 668.099 441.474Z" fill="#6666FE" stroke="#141414" stroke-width="0.75" stroke-miterlimit="10" stroke-linecap="round" stroke-linejoin="round"/>
<path d="M596.801 397.527V441.474" stroke="#141414" stroke-width="0.75" stroke-miterlimit="10" stroke-linecap="round" stroke-linejoin="round"/>
<path d="M658.756 397.527V441.474" stroke="#141414" stroke-width="0.75" stroke-miterlimit="10" stroke-linecap="round" stroke-linejoin="round"/>
<path d="M670.639 406.674H584.816C581.667 406.674 579.128 404.045 579.128 400.786V374.922C579.128 371.663 581.667 369.034 584.816 369.034H670.639C673.787 369.034 676.326 371.663 676.326 374.922V400.786C676.428 404.045 673.787 406.674 670.639 406.674Z" fill="#6666FE"/>
<path d="M676.428 374.922V400.786C676.428 404.045 673.889 406.674 670.74 406.674H584.917C581.769 406.674 579.229 404.045 579.229 400.786V374.922" stroke="#141414" stroke-width="0.75" stroke-miterlimit="10" stroke-linecap="round" stroke-linejoin="round"/>
<path d="M607.973 370.506H598.934C598.121 370.506 597.41 369.77 597.41 368.929C597.41 368.088 598.121 367.352 598.934 367.352H607.973C608.785 367.352 609.496 368.088 609.496 368.929C609.496 369.77 608.785 370.506 607.973 370.506Z" fill="#141414"/>
<path d="M656.725 370.506H647.686C646.873 370.506 646.162 369.77 646.162 368.929C646.162 368.088 646.873 367.352 647.686 367.352H656.725C657.537 367.352 658.248 368.088 658.248 368.929C658.248 369.77 657.537 370.506 656.725 370.506Z" fill="#141414"/>
<path d="M607.973 368.744C607.656 368.744 607.355 368.459 607.355 368.088V363.251C607.355 362.88 607.656 362.595 607.973 362.595C608.29 362.595 608.59 362.88 608.59 363.251V368.088C608.59 368.459 608.29 368.744 607.973 368.744Z" fill="black" stroke="white"/>
<path d="M647.583 368.744C647.266 368.744 646.966 368.459 646.966 368.088V363.251C646.966 362.88 647.266 362.595 647.583 362.595C647.9 362.595 648.2 362.88 648.2 363.251V368.088C648.2 368.459 647.9 368.744 647.583 368.744Z" fill="black" stroke="white"/>
<path d="M607.871 363.567C613.051 361.044 620.059 359.572 627.88 359.572C635.599 359.572 642.708 361.149 647.888 363.567" stroke="#141414" stroke-width="4" stroke-miterlimit="10" stroke-linecap="round" stroke-linejoin="round"/>
<path d="M633.059 396.37C633.262 395.319 632.45 394.373 631.434 394.373H629.403H626.153H624.121C623.106 394.373 622.293 395.319 622.496 396.37L623.613 402.153H631.942L633.059 396.37Z" stroke="#141414" stroke-width="0.75" stroke-miterlimit="10" stroke-linecap="round" stroke-linejoin="round"/>
<path d="M631.028 407.83H624.527C623.41 407.83 622.598 406.884 622.598 405.833V403.204C622.598 402.048 623.512 401.207 624.527 401.207H631.028C632.145 401.207 632.957 402.153 632.957 403.204V405.833C632.957 406.884 632.145 407.83 631.028 407.83Z" fill="#141414"/>
<path d="M628.488 415.295H627.067C624.121 415.295 621.785 412.877 621.785 409.828V405.727C621.785 405.202 622.191 404.781 622.699 404.781H632.957C633.465 404.781 633.871 405.202 633.871 405.727V409.828C633.77 412.877 631.434 415.295 628.488 415.295Z" fill="#141414"/>
<path d="M629.504 409.092H626.152V412.561H629.504V409.092Z" stroke="black" stroke-width="0.75" stroke-miterlimit="10" stroke-linecap="round" stroke-linejoin="round"/>
<path d="M622.293 404.886H633.059" stroke="black" stroke-width="0.75" stroke-miterlimit="10" stroke-linecap="round" stroke-linejoin="round"/>
</g>
<defs>
<clipPath id="clip0_125_1148">
<rect width="720" height="442" fill="white"/>
</clipPath>
</defs>
</svg>
