<svg width="48" height="48" viewBox="0 0 48 48" fill="none" xmlns="http://www.w3.org/2000/svg">
<rect width="48" height="48" rx="24" fill="#236AD9"/>
<path d="M36 16.8778C35.1151 17.2521 34.1691 17.5049 33.1723 17.6216C34.1894 17.0382 34.9727 16.1146 35.3388 15.016C34.3878 15.5556 33.335 15.9493 32.2111 16.1584C31.3109 15.2396 30.0292 14.666 28.6154 14.666C25.8945 14.666 23.6923 16.7757 23.6923 19.3764C23.6923 19.7459 23.733 20.1056 23.8195 20.4507C19.7254 20.2563 16.0941 18.3799 13.6682 15.5264C13.246 16.2216 13.0019 17.0334 13.0019 17.8938C13.0019 19.5271 13.8767 20.9709 15.199 21.8167C14.3853 21.7973 13.6224 21.5834 12.9612 21.2285V21.2868C12.9612 23.5716 14.6599 25.4723 16.9129 25.9049C16.501 26.0118 16.0636 26.0702 15.616 26.0702C15.3007 26.0702 14.9905 26.041 14.6904 25.9827C15.316 27.8542 17.1367 29.2153 19.2931 29.2542C17.6097 30.5181 15.4838 31.2716 13.1748 31.2716C12.7781 31.2716 12.3865 31.2473 12 31.2035C14.1716 32.5549 16.7603 33.3327 19.5372 33.3327C28.6052 33.3327 33.5588 26.1528 33.5588 19.9257C33.5588 19.7216 33.5537 19.5174 33.5435 19.3181C34.5048 18.6521 35.3388 17.8257 36 16.8778Z" fill="white"/>
</svg>
